G04*
G04 #@! TF.GenerationSoftware,Altium Limited,Altium Designer,21.7.2 (23)*
G04*
G04 Layer_Color=8388736*
%FSLAX25Y25*%
%MOIN*%
G70*
G04*
G04 #@! TF.SameCoordinates,B8BBB409-1C5D-4E28-8008-B1E3FC97E4F7*
G04*
G04*
G04 #@! TF.FilePolarity,Negative*
G04*
G01*
G75*
%ADD10C,0.01000*%
%ADD25R,0.03556X0.04737*%
%ADD26R,0.12808X0.05918*%
%ADD27R,0.03162X0.03556*%
%ADD28R,0.04383X0.05603*%
%ADD29R,0.03162X0.06312*%
%ADD30R,0.05918X0.01784*%
%ADD31R,0.11824X0.07099*%
%ADD32R,0.05918X0.03556*%
%ADD33R,0.03556X0.05918*%
%ADD34R,0.03162X0.04343*%
%ADD35R,0.07099X0.04343*%
%ADD36R,0.04343X0.03162*%
%ADD37R,0.04343X0.07099*%
%ADD38C,0.06902*%
%ADD39C,0.05800*%
D10*
X314961D01*
Y133858D01*
X0D02*
X314961D01*
X0Y0D02*
Y133858D01*
D25*
X219882Y88587D02*
D03*
X223622Y88583D02*
D03*
X216142D02*
D03*
Y98740D02*
D03*
X223622D02*
D03*
D26*
X204724Y89488D02*
D03*
Y98622D02*
D03*
D27*
X137795Y107480D02*
D03*
X132283D02*
D03*
D28*
X227224Y78347D02*
D03*
X214346D02*
D03*
D29*
X174685Y77953D02*
D03*
X169567D02*
D03*
X169685Y98819D02*
D03*
X179685Y77953D02*
D03*
X184685D02*
D03*
X179685Y98819D02*
D03*
X184685D02*
D03*
X174685D02*
D03*
D30*
X292126Y50787D02*
D03*
Y52756D02*
D03*
Y54724D02*
D03*
Y56693D02*
D03*
Y58661D02*
D03*
Y76378D02*
D03*
Y60630D02*
D03*
Y62598D02*
D03*
Y64567D02*
D03*
Y66535D02*
D03*
Y68504D02*
D03*
Y70472D02*
D03*
Y72441D02*
D03*
Y74409D02*
D03*
Y78347D02*
D03*
Y80315D02*
D03*
Y82284D02*
D03*
Y84252D02*
D03*
Y86221D02*
D03*
Y88189D02*
D03*
Y90158D02*
D03*
Y92126D02*
D03*
Y94095D02*
D03*
Y48819D02*
D03*
D31*
X304252Y40945D02*
D03*
X304252Y101969D02*
D03*
D32*
X278740Y31693D02*
D03*
Y24213D02*
D03*
X262598Y4724D02*
D03*
Y12204D02*
D03*
X270472Y4724D02*
D03*
Y12204D02*
D03*
X246850Y4921D02*
D03*
Y12401D02*
D03*
X287795Y4725D02*
D03*
Y12205D02*
D03*
X279921D02*
D03*
Y4725D02*
D03*
X254724Y4921D02*
D03*
Y12401D02*
D03*
X238870Y12301D02*
D03*
Y4821D02*
D03*
X231102Y12205D02*
D03*
Y4725D02*
D03*
X223228Y12205D02*
D03*
Y4725D02*
D03*
X215354Y12205D02*
D03*
Y4725D02*
D03*
X207480Y12401D02*
D03*
Y4921D02*
D03*
X200787Y17717D02*
D03*
Y25197D02*
D03*
X244382Y113484D02*
D03*
Y106004D02*
D03*
X157480Y2757D02*
D03*
Y10236D02*
D03*
X150000Y2757D02*
D03*
Y10236D02*
D03*
D33*
X307087Y27953D02*
D03*
X299607D02*
D03*
X307087Y16535D02*
D03*
X299608D02*
D03*
X254725Y63386D02*
D03*
X262205D02*
D03*
X217717Y106693D02*
D03*
X210237D02*
D03*
D34*
X261024Y70472D02*
D03*
X255112D02*
D03*
X225197Y71260D02*
D03*
X219285D02*
D03*
X244494Y77559D02*
D03*
X238583D02*
D03*
X238577Y84252D02*
D03*
X244488D02*
D03*
X137801Y114173D02*
D03*
X131890D02*
D03*
Y120079D02*
D03*
X137801D02*
D03*
D35*
X262492Y101862D02*
D03*
Y113280D02*
D03*
D36*
X235720Y113484D02*
D03*
Y107572D02*
D03*
X253437Y113484D02*
D03*
Y107572D02*
D03*
X232677Y78740D02*
D03*
Y84652D02*
D03*
D37*
X244489Y70472D02*
D03*
X233071D02*
D03*
D38*
X109921Y13622D02*
D03*
X9921D02*
D03*
X19921D02*
D03*
X29921D02*
D03*
X39921D02*
D03*
X49921D02*
D03*
X59921D02*
D03*
X69921D02*
D03*
X79921D02*
D03*
X89921D02*
D03*
X99921D02*
D03*
X119921D02*
D03*
X9921Y73622D02*
D03*
X49921D02*
D03*
X59921D02*
D03*
X69921D02*
D03*
X79921D02*
D03*
X89921D02*
D03*
X99921D02*
D03*
X109921D02*
D03*
X119921D02*
D03*
X129921D02*
D03*
X139921Y63622D02*
D03*
Y53622D02*
D03*
Y43622D02*
D03*
Y33622D02*
D03*
Y23622D02*
D03*
X129921Y13622D02*
D03*
X139921D02*
D03*
Y73622D02*
D03*
X19921D02*
D03*
X29921D02*
D03*
X39921D02*
D03*
X155905Y56221D02*
D03*
Y76221D02*
D03*
Y86221D02*
D03*
Y66220D02*
D03*
Y46220D02*
D03*
Y96220D02*
D03*
X156299Y32677D02*
D03*
Y18898D02*
D03*
X120079Y86221D02*
D03*
X40079Y96720D02*
D03*
X30079D02*
D03*
X20079D02*
D03*
X140079D02*
D03*
X130079D02*
D03*
X120079D02*
D03*
X110079D02*
D03*
X100079D02*
D03*
X90079D02*
D03*
X80079D02*
D03*
X70079D02*
D03*
X60079D02*
D03*
X50079D02*
D03*
X10079D02*
D03*
Y86221D02*
D03*
X70079D02*
D03*
X110079D02*
D03*
X60079D02*
D03*
X40079D02*
D03*
X50079D02*
D03*
X30079D02*
D03*
X20079D02*
D03*
X130079D02*
D03*
X100079D02*
D03*
X90079D02*
D03*
X80079D02*
D03*
X140079D02*
D03*
D39*
X146063Y111417D02*
D03*
X172835Y17323D02*
D03*
X295276Y22441D02*
D03*
X268898Y104724D02*
D03*
X300394Y72441D02*
D03*
X309449Y127559D02*
D03*
X307480Y3937D02*
D03*
X303937Y50394D02*
D03*
X187008Y17717D02*
D03*
X245669Y51181D02*
D03*
X161417Y121260D02*
D03*
X10630Y123228D02*
D03*
M02*
