G04*
G04 #@! TF.GenerationSoftware,Altium Limited,Altium Designer,21.7.2 (23)*
G04*
G04 Layer_Color=65535*
%FSLAX25Y25*%
%MOIN*%
G70*
G04*
G04 #@! TF.SameCoordinates,B8BBB409-1C5D-4E28-8008-B1E3FC97E4F7*
G04*
G04*
G04 #@! TF.FilePolarity,Positive*
G04*
G01*
G75*
%ADD10C,0.01000*%
%ADD11C,0.00591*%
D10*
X216591Y84882D02*
G03*
X216591Y84882I-449J0D01*
G01*
X170055Y73228D02*
G03*
X170055Y73228I-449J0D01*
G01*
X10409Y7559D02*
G03*
X10409Y7559I-449J0D01*
G01*
X292496Y45551D02*
G03*
X292496Y45551I-449J0D01*
G01*
X150055Y45945D02*
G03*
X150055Y45945I-449J0D01*
G01*
X151315Y18898D02*
G03*
X151315Y18898I-449J0D01*
G01*
X0Y0D02*
X314961D01*
Y133858D01*
X0D02*
X314961D01*
X0Y0D02*
Y133858D01*
D11*
X258858Y11091D02*
X260825D01*
Y10107D01*
X260497Y9779D01*
X259841D01*
X259513Y10107D01*
Y11091D01*
Y10435D02*
X258858Y9779D01*
Y7811D02*
Y9123D01*
X260170Y7811D01*
X260497D01*
X260825Y8139D01*
Y8795D01*
X260497Y9123D01*
X258858Y5843D02*
Y7155D01*
X260170Y5843D01*
X260497D01*
X260825Y6171D01*
Y6827D01*
X260497Y7155D01*
X285006Y43042D02*
Y43698D01*
Y43370D01*
X283366D01*
X283038Y43698D01*
Y44026D01*
X283366Y44354D01*
X283038Y42386D02*
X285006D01*
Y41402D01*
X284678Y41074D01*
X284022D01*
X283694Y41402D01*
Y42386D01*
X282710Y40418D02*
Y39106D01*
X284678Y37138D02*
X285006Y37466D01*
Y38122D01*
X284678Y38450D01*
X284350D01*
X284022Y38122D01*
Y37466D01*
X283694Y37138D01*
X283366D01*
X283038Y37466D01*
Y38122D01*
X283366Y38450D01*
X285006Y36482D02*
X283038D01*
Y35498D01*
X283366Y35171D01*
X284678D01*
X285006Y35498D01*
Y36482D01*
X283038Y34514D02*
X284350D01*
X285006Y33859D01*
X284350Y33203D01*
X283038D01*
X284022D01*
Y34514D01*
X283694Y32547D02*
Y31235D01*
X284350Y32547D02*
Y31235D01*
X284678Y29267D02*
X285006Y29595D01*
Y30251D01*
X284678Y30579D01*
X284350D01*
X284022Y30251D01*
Y29595D01*
X283694Y29267D01*
X283366D01*
X283038Y29595D01*
Y30251D01*
X283366Y30579D01*
X285006Y28611D02*
X283038D01*
Y27627D01*
X283366Y27299D01*
X284678D01*
X285006Y27627D01*
Y28611D01*
X283038Y26643D02*
X284350D01*
X285006Y25987D01*
X284350Y25331D01*
X283038D01*
X284022D01*
Y26643D01*
X290604Y98205D02*
Y97549D01*
Y97877D01*
X292244D01*
X292572Y97549D01*
Y97221D01*
X292244Y96893D01*
X292900Y98861D02*
Y100173D01*
X290604Y101813D02*
Y101157D01*
X290932Y100829D01*
X292244D01*
X292572Y101157D01*
Y101813D01*
X292244Y102140D01*
X290932D01*
X290604Y101813D01*
Y102796D02*
X292572D01*
Y104108D01*
X290604Y106076D02*
Y104764D01*
X292572D01*
Y106076D01*
X291588Y104764D02*
Y105420D01*
X290604Y106732D02*
X292572D01*
Y107716D01*
X292244Y108044D01*
X290932D01*
X290604Y107716D01*
Y106732D01*
X296427Y34219D02*
X295771D01*
X296099D01*
Y32579D01*
X295771Y32251D01*
X295443D01*
X295115Y32579D01*
X297083Y32251D02*
Y34219D01*
X298067D01*
X298395Y33891D01*
Y33235D01*
X298067Y32907D01*
X297083D01*
X299051Y31923D02*
X300362D01*
X301018Y34219D02*
Y32251D01*
X302002D01*
X302330Y32579D01*
Y32907D01*
X302002Y33235D01*
X301018D01*
X302002D01*
X302330Y33563D01*
Y33891D01*
X302002Y34219D01*
X301018D01*
X304298Y33891D02*
X303970Y34219D01*
X303314D01*
X302986Y33891D01*
Y33563D01*
X303314Y33235D01*
X303970D01*
X304298Y32907D01*
Y32579D01*
X303970Y32251D01*
X303314D01*
X302986Y32579D01*
X304954Y32251D02*
X305610D01*
X305282D01*
Y34219D01*
X304954Y33891D01*
X306594Y31923D02*
X307906D01*
X308562Y34219D02*
Y32251D01*
Y33235D01*
X309874D01*
Y34219D01*
Y32251D01*
X310530Y34219D02*
X311186D01*
X310858D01*
Y32251D01*
X310530D01*
X311186D01*
X262402Y19619D02*
X264370D01*
Y18635D01*
X264042Y18307D01*
X263386D01*
X263058Y18635D01*
Y19619D01*
Y18963D02*
X262402Y18307D01*
Y16339D02*
Y17651D01*
X263714Y16339D01*
X264042D01*
X264370Y16667D01*
Y17323D01*
X264042Y17651D01*
X262402Y15683D02*
Y15027D01*
Y15355D01*
X264370D01*
X264042Y15683D01*
X295868Y12172D02*
X295213D01*
X295540D01*
Y10532D01*
X295213Y10204D01*
X294884D01*
X294556Y10532D01*
X296524Y10204D02*
Y12172D01*
X297508D01*
X297836Y11844D01*
Y11188D01*
X297508Y10860D01*
X296524D01*
X298492Y9876D02*
X299804D01*
X300460Y12172D02*
Y10204D01*
X301444D01*
X301772Y10532D01*
Y10860D01*
X301444Y11188D01*
X300460D01*
X301444D01*
X301772Y11516D01*
Y11844D01*
X301444Y12172D01*
X300460D01*
X303740Y11844D02*
X303412Y12172D01*
X302756D01*
X302428Y11844D01*
Y11516D01*
X302756Y11188D01*
X303412D01*
X303740Y10860D01*
Y10532D01*
X303412Y10204D01*
X302756D01*
X302428Y10532D01*
X305708Y10204D02*
X304396D01*
X305708Y11516D01*
Y11844D01*
X305380Y12172D01*
X304724D01*
X304396Y11844D01*
X306364Y9876D02*
X307676D01*
X308331Y12172D02*
Y10204D01*
Y11188D01*
X309643D01*
Y12172D01*
Y10204D01*
X310299Y12172D02*
X310955D01*
X310627D01*
Y10204D01*
X310299D01*
X310955D01*
X269489Y20176D02*
X271456D01*
Y19192D01*
X271128Y18864D01*
X270473D01*
X270145Y19192D01*
Y20176D01*
Y19520D02*
X269489Y18864D01*
Y18209D02*
Y17552D01*
Y17880D01*
X271456D01*
X271128Y18209D01*
Y16569D02*
X271456Y16241D01*
Y15585D01*
X271128Y15257D01*
X270800D01*
X270473Y15585D01*
Y15913D01*
Y15585D01*
X270145Y15257D01*
X269816D01*
X269489Y15585D01*
Y16241D01*
X269816Y16569D01*
X245866Y20734D02*
X247834D01*
Y19750D01*
X247506Y19422D01*
X246850D01*
X246522Y19750D01*
Y20734D01*
Y20078D02*
X245866Y19422D01*
Y17454D02*
Y18766D01*
X247178Y17454D01*
X247506D01*
X247834Y17782D01*
Y18438D01*
X247506Y18766D01*
Y16798D02*
X247834Y16470D01*
Y15814D01*
X247506Y15486D01*
X247178D01*
X246850Y15814D01*
Y16142D01*
Y15814D01*
X246522Y15486D01*
X246195D01*
X245866Y15814D01*
Y16470D01*
X246195Y16798D01*
X286874Y19660D02*
X288842D01*
Y18676D01*
X288514Y18348D01*
X287858D01*
X287530Y18676D01*
Y19660D01*
Y19004D02*
X286874Y18348D01*
Y17692D02*
Y17036D01*
Y17364D01*
X288842D01*
X288514Y17692D01*
X286874Y16052D02*
Y15396D01*
Y15724D01*
X288842D01*
X288514Y16052D01*
X278685Y20354D02*
X280653D01*
Y19370D01*
X280325Y19042D01*
X279669D01*
X279341Y19370D01*
Y20354D01*
Y19698D02*
X278685Y19042D01*
Y18386D02*
Y17730D01*
Y18058D01*
X280653D01*
X280325Y18386D01*
X278685Y15434D02*
Y16746D01*
X279997Y15434D01*
X280325D01*
X280653Y15762D01*
Y16418D01*
X280325Y16746D01*
X249673Y64042D02*
X249345Y64370D01*
X248689D01*
X248361Y64042D01*
Y62730D01*
X248689Y62402D01*
X249345D01*
X249673Y62730D01*
X250329Y64370D02*
X251641D01*
Y64042D01*
X250329Y62730D01*
Y62402D01*
X256234Y75000D02*
Y76968D01*
X257218D01*
X257546Y76640D01*
Y75984D01*
X257218Y75656D01*
X256234D01*
X256890D02*
X257546Y75000D01*
X259186D02*
Y76968D01*
X258202Y75984D01*
X259514D01*
X237993Y20340D02*
X239960D01*
Y19356D01*
X239632Y19028D01*
X238976D01*
X238648Y19356D01*
Y20340D01*
Y19684D02*
X237993Y19028D01*
Y17061D02*
Y18372D01*
X239304Y17061D01*
X239632D01*
X239960Y17389D01*
Y18045D01*
X239632Y18372D01*
X237993Y15421D02*
X239960D01*
X238976Y16405D01*
Y15093D01*
X230118Y19619D02*
X232086D01*
Y18635D01*
X231758Y18307D01*
X231102D01*
X230774Y18635D01*
Y19619D01*
Y18963D02*
X230118Y18307D01*
X231758Y17651D02*
X232086Y17323D01*
Y16667D01*
X231758Y16339D01*
X231430D01*
X231102Y16667D01*
Y16995D01*
Y16667D01*
X230774Y16339D01*
X230446D01*
X230118Y16667D01*
Y17323D01*
X230446Y17651D01*
X230118Y15683D02*
Y15027D01*
Y15355D01*
X232086D01*
X231758Y15683D01*
X222244Y19947D02*
X224212D01*
Y18963D01*
X223884Y18635D01*
X223228D01*
X222900Y18963D01*
Y19947D01*
Y19291D02*
X222244Y18635D01*
X223884Y17979D02*
X224212Y17651D01*
Y16995D01*
X223884Y16667D01*
X223556D01*
X223228Y16995D01*
Y17323D01*
Y16995D01*
X222900Y16667D01*
X222572D01*
X222244Y16995D01*
Y17651D01*
X222572Y17979D01*
X222244Y14699D02*
Y16011D01*
X223556Y14699D01*
X223884D01*
X224212Y15027D01*
Y15683D01*
X223884Y16011D01*
X214764Y19947D02*
X216732D01*
Y18963D01*
X216404Y18635D01*
X215748D01*
X215420Y18963D01*
Y19947D01*
Y19291D02*
X214764Y18635D01*
X216404Y17979D02*
X216732Y17651D01*
Y16995D01*
X216404Y16667D01*
X216076D01*
X215748Y16995D01*
Y17323D01*
Y16995D01*
X215420Y16667D01*
X215092D01*
X214764Y16995D01*
Y17651D01*
X215092Y17979D01*
X216404Y16011D02*
X216732Y15683D01*
Y15027D01*
X216404Y14699D01*
X216076D01*
X215748Y15027D01*
Y15355D01*
Y15027D01*
X215420Y14699D01*
X215092D01*
X214764Y15027D01*
Y15683D01*
X215092Y16011D01*
X206496Y19947D02*
X208464D01*
Y18963D01*
X208136Y18635D01*
X207480D01*
X207152Y18963D01*
Y19947D01*
Y19291D02*
X206496Y18635D01*
X208136Y17979D02*
X208464Y17651D01*
Y16995D01*
X208136Y16667D01*
X207808D01*
X207480Y16995D01*
Y17323D01*
Y16995D01*
X207152Y16667D01*
X206824D01*
X206496Y16995D01*
Y17651D01*
X206824Y17979D01*
X206496Y15027D02*
X208464D01*
X207480Y16011D01*
Y14699D01*
X194128Y15553D02*
Y14897D01*
Y15225D01*
X195768D01*
X196096Y14897D01*
Y14570D01*
X195768Y14242D01*
X196096Y16209D02*
X194128D01*
Y17193D01*
X194456Y17521D01*
X195112D01*
X195440Y17193D01*
Y16209D01*
X196423Y18177D02*
Y19489D01*
X194456Y21457D02*
X194128Y21129D01*
Y20473D01*
X194456Y20145D01*
X194784D01*
X195112Y20473D01*
Y21129D01*
X195440Y21457D01*
X195768D01*
X196096Y21129D01*
Y20473D01*
X195768Y20145D01*
X196096Y22113D02*
X194784D01*
X194128Y22769D01*
X194784Y23425D01*
X196096D01*
X195112D01*
Y22113D01*
X194456Y24081D02*
X194128Y24409D01*
Y25065D01*
X194456Y25393D01*
X195768D01*
X196096Y25065D01*
Y24409D01*
X195768Y24081D01*
X194456D01*
X196423Y26049D02*
Y27361D01*
X194128Y28017D02*
X196096D01*
X195112D01*
Y29329D01*
X194128D01*
X196096D01*
X194128Y29984D02*
Y30640D01*
Y30312D01*
X196096D01*
Y29984D01*
Y30640D01*
X262754Y118202D02*
X263082Y118530D01*
Y119186D01*
X262754Y119514D01*
X261442D01*
X261115Y119186D01*
Y118530D01*
X261442Y118202D01*
X261115Y117546D02*
Y116890D01*
Y117218D01*
X263082D01*
X262754Y117546D01*
X207294Y113841D02*
X206638D01*
X206966D01*
Y112201D01*
X206638Y111873D01*
X206310D01*
X205982Y112201D01*
X207950Y111873D02*
Y113841D01*
X208934D01*
X209262Y113513D01*
Y112857D01*
X208934Y112529D01*
X207950D01*
X209917Y111545D02*
X211229D01*
X211885Y113841D02*
Y112529D01*
X212541Y111873D01*
X213197Y112529D01*
Y113841D01*
X214837D02*
X214181D01*
X213853Y113513D01*
Y112201D01*
X214181Y111873D01*
X214837D01*
X215165Y112201D01*
Y113513D01*
X214837Y113841D01*
X215821D02*
Y111873D01*
X217133D01*
X219101Y113841D02*
X217789D01*
Y111873D01*
X219101D01*
X217789Y112857D02*
X218445D01*
X219757Y113841D02*
Y111873D01*
X220741D01*
X221069Y112201D01*
Y113513D01*
X220741Y113841D01*
X219757D01*
X221725Y111545D02*
X223037D01*
X225005Y113841D02*
X223692D01*
Y111873D01*
X225005D01*
X223692Y112857D02*
X224348D01*
X225660Y111873D02*
Y113841D01*
X226972Y111873D01*
Y113841D01*
X195866Y95800D02*
X193898D01*
Y94488D01*
Y93832D02*
Y93176D01*
Y93504D01*
X195866D01*
X195538Y93832D01*
X227428Y98622D02*
Y96982D01*
X227756Y96654D01*
X228412D01*
X228740Y96982D01*
Y98622D01*
X229396Y96654D02*
X230052D01*
X229724D01*
Y98622D01*
X229396Y98294D01*
X236770Y118530D02*
X237098Y118858D01*
Y119514D01*
X236770Y119842D01*
X235458D01*
X235130Y119514D01*
Y118858D01*
X235458Y118530D01*
X237098Y116562D02*
Y117874D01*
X236114D01*
X236442Y117218D01*
Y116890D01*
X236114Y116562D01*
X235458D01*
X235130Y116890D01*
Y117546D01*
X235458Y117874D01*
X254093Y118530D02*
X254421Y118858D01*
Y119514D01*
X254093Y119842D01*
X252781D01*
X252453Y119514D01*
Y118858D01*
X252781Y118530D01*
X252453Y116562D02*
Y117874D01*
X253765Y116562D01*
X254093D01*
X254421Y116890D01*
Y117546D01*
X254093Y117874D01*
X245038Y118530D02*
X245366Y118858D01*
Y119514D01*
X245038Y119842D01*
X243726D01*
X243398Y119514D01*
Y118858D01*
X243726Y118530D01*
X243398Y116890D02*
X245366D01*
X244382Y117874D01*
Y116562D01*
X221719Y67191D02*
X221391Y67519D01*
X220735D01*
X220407Y67191D01*
Y65879D01*
X220735Y65552D01*
X221391D01*
X221719Y65879D01*
X222375Y67191D02*
X222703Y67519D01*
X223359D01*
X223687Y67191D01*
Y66863D01*
X223359Y66535D01*
X223031D01*
X223359D01*
X223687Y66207D01*
Y65879D01*
X223359Y65552D01*
X222703D01*
X222375Y65879D01*
X204184Y79330D02*
Y77363D01*
X205168D01*
X205496Y77691D01*
Y79002D01*
X205168Y79330D01*
X204184D01*
X206152Y77363D02*
X206808D01*
X206480D01*
Y79330D01*
X206152Y79002D01*
X249278Y71522D02*
X248950Y71850D01*
X248294D01*
X247966Y71522D01*
Y70210D01*
X248294Y69882D01*
X248950D01*
X249278Y70210D01*
X249934Y71522D02*
X250262Y71850D01*
X250918D01*
X251246Y71522D01*
Y71194D01*
X250918Y70866D01*
X251246Y70538D01*
Y70210D01*
X250918Y69882D01*
X250262D01*
X249934Y70210D01*
Y70538D01*
X250262Y70866D01*
X249934Y71194D01*
Y71522D01*
X250262Y70866D02*
X250918D01*
X231693Y90682D02*
X233661D01*
Y89698D01*
X233333Y89370D01*
X232677D01*
X232349Y89698D01*
Y90682D01*
Y90026D02*
X231693Y89370D01*
Y88714D02*
Y88058D01*
Y88386D01*
X233661D01*
X233333Y88714D01*
X249672Y78215D02*
X249344Y78543D01*
X248688D01*
X248360Y78215D01*
Y76903D01*
X248688Y76575D01*
X249344D01*
X249672Y76903D01*
X250328D02*
X250656Y76575D01*
X251312D01*
X251640Y76903D01*
Y78215D01*
X251312Y78543D01*
X250656D01*
X250328Y78215D01*
Y77887D01*
X250656Y77559D01*
X251640D01*
X247966Y83268D02*
Y85236D01*
X248950D01*
X249278Y84908D01*
Y84252D01*
X248950Y83924D01*
X247966D01*
X248622D02*
X249278Y83268D01*
X251246D02*
X249934D01*
X251246Y84580D01*
Y84908D01*
X250918Y85236D01*
X250262D01*
X249934Y84908D01*
X154712Y40968D02*
X154056D01*
X154384D01*
Y39328D01*
X154056Y39000D01*
X153728D01*
X153400Y39328D01*
X155368Y38672D02*
X156680D01*
X157336Y40968D02*
Y39000D01*
X158320D01*
X158648Y39328D01*
Y39656D01*
X158320Y39984D01*
X157336D01*
X158320D01*
X158648Y40312D01*
Y40640D01*
X158320Y40968D01*
X157336D01*
X159304Y39000D02*
Y40312D01*
X159959Y40968D01*
X160616Y40312D01*
Y39000D01*
Y39984D01*
X159304D01*
X161271Y40968D02*
X162583D01*
X161927D01*
Y39000D01*
X168600Y106568D02*
Y104928D01*
X168928Y104600D01*
X169584D01*
X169912Y104928D01*
Y106568D01*
X171880Y104600D02*
X170568D01*
X171880Y105912D01*
Y106240D01*
X171552Y106568D01*
X170896D01*
X170568Y106240D01*
X154312Y104568D02*
X153656D01*
X153984D01*
Y102928D01*
X153656Y102600D01*
X153328D01*
X153000Y102928D01*
X154968Y102272D02*
X156280D01*
X156936Y104568D02*
Y102600D01*
X157920D01*
X158248Y102928D01*
Y103256D01*
X157920Y103584D01*
X156936D01*
X157920D01*
X158248Y103912D01*
Y104240D01*
X157920Y104568D01*
X156936D01*
X158904D02*
X160215D01*
X159560D01*
Y102600D01*
X164206Y1708D02*
X162238D01*
Y2692D01*
X162566Y3019D01*
X163222D01*
X163550Y2692D01*
Y1708D01*
Y2363D02*
X164206Y3019D01*
X164534Y3675D02*
Y4987D01*
X162238Y5643D02*
X164206D01*
Y6627D01*
X163878Y6955D01*
X163550D01*
X163222Y6627D01*
Y5643D01*
Y6627D01*
X162894Y6955D01*
X162566D01*
X162238Y6627D01*
Y5643D01*
Y7611D02*
Y8923D01*
Y8267D01*
X164206D01*
Y10891D02*
Y9579D01*
X162894Y10891D01*
X162566D01*
X162238Y10563D01*
Y9907D01*
X162566Y9579D01*
X145702Y2429D02*
X143734D01*
Y3413D01*
X144062Y3741D01*
X144718D01*
X145046Y3413D01*
Y2429D01*
Y3085D02*
X145702Y3741D01*
X146030Y4397D02*
Y5709D01*
X143734Y6365D02*
X145702D01*
Y7349D01*
X145374Y7677D01*
X145046D01*
X144718Y7349D01*
Y6365D01*
Y7349D01*
X144390Y7677D01*
X144062D01*
X143734Y7349D01*
Y6365D01*
Y8333D02*
Y9645D01*
Y8989D01*
X145702D01*
Y10301D02*
Y10957D01*
Y10629D01*
X143734D01*
X144062Y10301D01*
X8512Y105068D02*
X7856D01*
X8184D01*
Y103428D01*
X7856Y103100D01*
X7528D01*
X7200Y103428D01*
X9168Y102772D02*
X10480D01*
X11136Y105068D02*
X12448D01*
X11792D01*
Y103100D01*
X14415Y105068D02*
X13104D01*
Y103100D01*
X14415D01*
X13104Y104084D02*
X13759D01*
X16383Y104740D02*
X16055Y105068D01*
X15399D01*
X15071Y104740D01*
Y104412D01*
X15399Y104084D01*
X16055D01*
X16383Y103756D01*
Y103428D01*
X16055Y103100D01*
X15399D01*
X15071Y103428D01*
X17039Y105068D02*
X18351D01*
X17695D01*
Y103100D01*
X141273Y119095D02*
Y121063D01*
X142257D01*
X142585Y120735D01*
Y120079D01*
X142257Y119751D01*
X141273D01*
X141929D02*
X142585Y119095D01*
X143241Y120735D02*
X143569Y121063D01*
X144225D01*
X144553Y120735D01*
Y120407D01*
X144225Y120079D01*
X143897D01*
X144225D01*
X144553Y119751D01*
Y119423D01*
X144225Y119095D01*
X143569D01*
X143241Y119423D01*
X7100Y79700D02*
Y81668D01*
X7756Y81012D01*
X8412Y81668D01*
Y79700D01*
X10380Y81340D02*
X10052Y81668D01*
X9396D01*
X9068Y81340D01*
Y80028D01*
X9396Y79700D01*
X10052D01*
X10380Y80028D01*
X11036Y81668D02*
Y80028D01*
X11364Y79700D01*
X12020D01*
X12348Y80028D01*
Y81668D01*
X133793Y104133D02*
Y102166D01*
X134777D01*
X135105Y102494D01*
Y103806D01*
X134777Y104133D01*
X133793D01*
X137073Y102166D02*
X135761D01*
X137073Y103478D01*
Y103806D01*
X136745Y104133D01*
X136089D01*
X135761Y103806D01*
X126444Y115223D02*
X126116Y115551D01*
X125460D01*
X125132Y115223D01*
Y113911D01*
X125460Y113583D01*
X126116D01*
X126444Y113911D01*
X128411Y115551D02*
X127756Y115223D01*
X127100Y114567D01*
Y113911D01*
X127428Y113583D01*
X128084D01*
X128411Y113911D01*
Y114239D01*
X128084Y114567D01*
X127100D01*
M02*
