G04*
G04 #@! TF.GenerationSoftware,Altium Limited,Altium Designer,21.7.2 (23)*
G04*
G04 Layer_Physical_Order=2*
G04 Layer_Color=16711680*
%FSLAX25Y25*%
%MOIN*%
G70*
G04*
G04 #@! TF.SameCoordinates,B8BBB409-1C5D-4E28-8008-B1E3FC97E4F7*
G04*
G04*
G04 #@! TF.FilePolarity,Positive*
G04*
G01*
G75*
%ADD10C,0.01000*%
%ADD40C,0.06102*%
%ADD41C,0.05000*%
G36*
X314961D02*
X308242D01*
X308176Y500D01*
X308831Y675D01*
X309629Y1136D01*
X310281Y1788D01*
X310742Y2586D01*
X310970Y3437D01*
X303991D01*
X304219Y2586D01*
X304680Y1788D01*
X305331Y1136D01*
X306129Y675D01*
X306785Y500D01*
X306719Y0D01*
X0D01*
Y133858D01*
X314961D01*
Y0D01*
D02*
G37*
%LPC*%
G36*
X309949Y131049D02*
Y128059D01*
X312938D01*
X312710Y128910D01*
X312249Y129708D01*
X311598Y130360D01*
X310800Y130821D01*
X309949Y131049D01*
D02*
G37*
G36*
X308949D02*
X308098Y130821D01*
X307300Y130360D01*
X306648Y129708D01*
X306187Y128910D01*
X305959Y128059D01*
X308949D01*
Y131049D01*
D02*
G37*
G36*
X312938Y127059D02*
X309949D01*
Y124070D01*
X310800Y124298D01*
X311598Y124758D01*
X312249Y125410D01*
X312710Y126208D01*
X312938Y127059D01*
D02*
G37*
G36*
X308949D02*
X305959D01*
X306187Y126208D01*
X306648Y125410D01*
X307300Y124758D01*
X308098Y124298D01*
X308949Y124070D01*
Y127059D01*
D02*
G37*
G36*
X11130Y126718D02*
Y123728D01*
X14119D01*
X13891Y124579D01*
X13431Y125377D01*
X12779Y126029D01*
X11981Y126490D01*
X11130Y126718D01*
D02*
G37*
G36*
X10130D02*
X9279Y126490D01*
X8481Y126029D01*
X7829Y125377D01*
X7368Y124579D01*
X7140Y123728D01*
X10130D01*
Y126718D01*
D02*
G37*
G36*
X14119Y122728D02*
X11130D01*
Y119739D01*
X11981Y119967D01*
X12779Y120428D01*
X13431Y121079D01*
X13891Y121877D01*
X14119Y122728D01*
D02*
G37*
G36*
X10130D02*
X7140D01*
X7368Y121877D01*
X7829Y121079D01*
X8481Y120428D01*
X9279Y119967D01*
X10130Y119739D01*
Y122728D01*
D02*
G37*
G36*
X149553Y110917D02*
X146563D01*
Y107928D01*
X147414Y108156D01*
X148212Y108617D01*
X148864Y109268D01*
X149325Y110066D01*
X149553Y110917D01*
D02*
G37*
G36*
X145563D02*
X142573D01*
X142801Y110066D01*
X143262Y109268D01*
X143914Y108617D01*
X144712Y108156D01*
X145563Y107928D01*
Y110917D01*
D02*
G37*
G36*
X269398Y108214D02*
Y105224D01*
X272387D01*
X272159Y106075D01*
X271698Y106874D01*
X271047Y107525D01*
X270249Y107986D01*
X269398Y108214D01*
D02*
G37*
G36*
X268398D02*
X267547Y107986D01*
X266749Y107525D01*
X266097Y106874D01*
X265636Y106075D01*
X265408Y105224D01*
X268398D01*
Y108214D01*
D02*
G37*
G36*
X272387Y104224D02*
X269398D01*
Y101235D01*
X270249Y101463D01*
X271047Y101924D01*
X271698Y102575D01*
X272159Y103374D01*
X272387Y104224D01*
D02*
G37*
G36*
X268398D02*
X265408D01*
X265636Y103374D01*
X266097Y102575D01*
X266749Y101924D01*
X267547Y101463D01*
X268398Y101235D01*
Y104224D01*
D02*
G37*
G36*
X20612Y100772D02*
X20579D01*
Y97220D01*
X24130D01*
Y97254D01*
X23854Y98284D01*
X23321Y99208D01*
X22566Y99962D01*
X21642Y100496D01*
X20612Y100772D01*
D02*
G37*
G36*
X19579D02*
X19545D01*
X18515Y100496D01*
X17591Y99962D01*
X16837Y99208D01*
X16304Y98284D01*
X16028Y97254D01*
Y97220D01*
X19579D01*
Y100772D01*
D02*
G37*
G36*
X130612D02*
X129545D01*
X128515Y100496D01*
X127591Y99962D01*
X126837Y99208D01*
X126304Y98284D01*
X126028Y97254D01*
Y96187D01*
X126304Y95157D01*
X126837Y94233D01*
X127591Y93479D01*
X128515Y92945D01*
X129545Y92669D01*
X130612D01*
X131642Y92945D01*
X132566Y93479D01*
X133320Y94233D01*
X133854Y95157D01*
X134130Y96187D01*
Y97254D01*
X133854Y98284D01*
X133320Y99208D01*
X132566Y99962D01*
X131642Y100496D01*
X130612Y100772D01*
D02*
G37*
G36*
X120612D02*
X119545D01*
X118515Y100496D01*
X117591Y99962D01*
X116837Y99208D01*
X116304Y98284D01*
X116028Y97254D01*
Y96187D01*
X116304Y95157D01*
X116837Y94233D01*
X117591Y93479D01*
X118515Y92945D01*
X119545Y92669D01*
X120612D01*
X121642Y92945D01*
X122566Y93479D01*
X123320Y94233D01*
X123854Y95157D01*
X124130Y96187D01*
Y97254D01*
X123854Y98284D01*
X123320Y99208D01*
X122566Y99962D01*
X121642Y100496D01*
X120612Y100772D01*
D02*
G37*
G36*
X110612D02*
X109545D01*
X108515Y100496D01*
X107591Y99962D01*
X106837Y99208D01*
X106304Y98284D01*
X106028Y97254D01*
Y96187D01*
X106304Y95157D01*
X106837Y94233D01*
X107591Y93479D01*
X108515Y92945D01*
X109545Y92669D01*
X110612D01*
X111642Y92945D01*
X112566Y93479D01*
X113321Y94233D01*
X113854Y95157D01*
X114130Y96187D01*
Y97254D01*
X113854Y98284D01*
X113321Y99208D01*
X112566Y99962D01*
X111642Y100496D01*
X110612Y100772D01*
D02*
G37*
G36*
X100612D02*
X99545D01*
X98515Y100496D01*
X97591Y99962D01*
X96837Y99208D01*
X96304Y98284D01*
X96028Y97254D01*
Y96187D01*
X96304Y95157D01*
X96837Y94233D01*
X97591Y93479D01*
X98515Y92945D01*
X99545Y92669D01*
X100612D01*
X101642Y92945D01*
X102566Y93479D01*
X103321Y94233D01*
X103854Y95157D01*
X104130Y96187D01*
Y97254D01*
X103854Y98284D01*
X103321Y99208D01*
X102566Y99962D01*
X101642Y100496D01*
X100612Y100772D01*
D02*
G37*
G36*
X90612D02*
X89545D01*
X88515Y100496D01*
X87591Y99962D01*
X86837Y99208D01*
X86304Y98284D01*
X86028Y97254D01*
Y96187D01*
X86304Y95157D01*
X86837Y94233D01*
X87591Y93479D01*
X88515Y92945D01*
X89545Y92669D01*
X90612D01*
X91642Y92945D01*
X92566Y93479D01*
X93321Y94233D01*
X93854Y95157D01*
X94130Y96187D01*
Y97254D01*
X93854Y98284D01*
X93321Y99208D01*
X92566Y99962D01*
X91642Y100496D01*
X90612Y100772D01*
D02*
G37*
G36*
X80612D02*
X79545D01*
X78515Y100496D01*
X77591Y99962D01*
X76837Y99208D01*
X76304Y98284D01*
X76028Y97254D01*
Y96187D01*
X76304Y95157D01*
X76837Y94233D01*
X77591Y93479D01*
X78515Y92945D01*
X79545Y92669D01*
X80612D01*
X81642Y92945D01*
X82566Y93479D01*
X83320Y94233D01*
X83854Y95157D01*
X84130Y96187D01*
Y97254D01*
X83854Y98284D01*
X83320Y99208D01*
X82566Y99962D01*
X81642Y100496D01*
X80612Y100772D01*
D02*
G37*
G36*
X70612D02*
X69545D01*
X68515Y100496D01*
X67591Y99962D01*
X66837Y99208D01*
X66304Y98284D01*
X66028Y97254D01*
Y96187D01*
X66304Y95157D01*
X66837Y94233D01*
X67591Y93479D01*
X68515Y92945D01*
X69545Y92669D01*
X70612D01*
X71642Y92945D01*
X72566Y93479D01*
X73321Y94233D01*
X73854Y95157D01*
X74130Y96187D01*
Y97254D01*
X73854Y98284D01*
X73321Y99208D01*
X72566Y99962D01*
X71642Y100496D01*
X70612Y100772D01*
D02*
G37*
G36*
X60612D02*
X59545D01*
X58515Y100496D01*
X57591Y99962D01*
X56837Y99208D01*
X56304Y98284D01*
X56028Y97254D01*
Y96187D01*
X56304Y95157D01*
X56837Y94233D01*
X57591Y93479D01*
X58515Y92945D01*
X59545Y92669D01*
X60612D01*
X61642Y92945D01*
X62566Y93479D01*
X63320Y94233D01*
X63854Y95157D01*
X64130Y96187D01*
Y97254D01*
X63854Y98284D01*
X63320Y99208D01*
X62566Y99962D01*
X61642Y100496D01*
X60612Y100772D01*
D02*
G37*
G36*
X50612D02*
X49545D01*
X48515Y100496D01*
X47591Y99962D01*
X46837Y99208D01*
X46304Y98284D01*
X46028Y97254D01*
Y96187D01*
X46304Y95157D01*
X46837Y94233D01*
X47591Y93479D01*
X48515Y92945D01*
X49545Y92669D01*
X50612D01*
X51642Y92945D01*
X52566Y93479D01*
X53320Y94233D01*
X53854Y95157D01*
X54130Y96187D01*
Y97254D01*
X53854Y98284D01*
X53320Y99208D01*
X52566Y99962D01*
X51642Y100496D01*
X50612Y100772D01*
D02*
G37*
G36*
X40612D02*
X39545D01*
X38515Y100496D01*
X37591Y99962D01*
X36837Y99208D01*
X36304Y98284D01*
X36028Y97254D01*
Y96187D01*
X36304Y95157D01*
X36837Y94233D01*
X37591Y93479D01*
X38515Y92945D01*
X39545Y92669D01*
X40612D01*
X41642Y92945D01*
X42566Y93479D01*
X43321Y94233D01*
X43854Y95157D01*
X44130Y96187D01*
Y97254D01*
X43854Y98284D01*
X43321Y99208D01*
X42566Y99962D01*
X41642Y100496D01*
X40612Y100772D01*
D02*
G37*
G36*
X24130Y96220D02*
X20579D01*
Y92669D01*
X20612D01*
X21642Y92945D01*
X22566Y93479D01*
X23321Y94233D01*
X23854Y95157D01*
X24130Y96187D01*
Y96220D01*
D02*
G37*
G36*
X19579D02*
X16028D01*
Y96187D01*
X16304Y95157D01*
X16837Y94233D01*
X17591Y93479D01*
X18515Y92945D01*
X19545Y92669D01*
X19579D01*
Y96220D01*
D02*
G37*
G36*
X10612Y100772D02*
X9545D01*
X8515Y100496D01*
X7591Y99962D01*
X6837Y99208D01*
X6304Y98284D01*
X6028Y97254D01*
Y96187D01*
X6304Y95157D01*
X6321Y95126D01*
X2068Y90873D01*
X1737Y90377D01*
X1620Y89791D01*
Y84646D01*
X1737Y84060D01*
X2068Y83564D01*
X6793Y78840D01*
X7289Y78508D01*
X7874Y78392D01*
X149606D01*
X150192Y78508D01*
X150688Y78840D01*
X154311Y82463D01*
X154342Y82445D01*
X155372Y82169D01*
X156439D01*
X157469Y82445D01*
X158393Y82979D01*
X159147Y83733D01*
X159681Y84657D01*
X159957Y85687D01*
Y86754D01*
X159681Y87784D01*
X159147Y88708D01*
X158393Y89462D01*
X157469Y89996D01*
X156439Y90272D01*
X155372D01*
X154342Y89996D01*
X153418Y89462D01*
X152664Y88708D01*
X152130Y87784D01*
X151854Y86754D01*
Y85687D01*
X152130Y84657D01*
X152148Y84626D01*
X148973Y81451D01*
X8507D01*
X7510Y82448D01*
X7817Y82849D01*
X8515Y82445D01*
X9545Y82169D01*
X9579D01*
Y85720D01*
X6028D01*
Y85687D01*
X6304Y84657D01*
X6707Y83959D01*
X6307Y83652D01*
X4679Y85279D01*
Y89158D01*
X8484Y92963D01*
X8515Y92945D01*
X9545Y92669D01*
X10612D01*
X11642Y92945D01*
X12566Y93479D01*
X13320Y94233D01*
X13854Y95157D01*
X14130Y96187D01*
Y97254D01*
X13854Y98284D01*
X13320Y99208D01*
X12566Y99962D01*
X11642Y100496D01*
X10612Y100772D01*
D02*
G37*
G36*
X156439Y100272D02*
X155372D01*
X154342Y99996D01*
X153418Y99462D01*
X152664Y98708D01*
X152130Y97784D01*
X151854Y96754D01*
Y95687D01*
X152130Y94657D01*
X152664Y93733D01*
X153418Y92979D01*
X154342Y92445D01*
X155372Y92169D01*
X156439D01*
X157469Y92445D01*
X158393Y92979D01*
X159147Y93733D01*
X159681Y94657D01*
X159957Y95687D01*
Y96754D01*
X159681Y97784D01*
X159147Y98708D01*
X158393Y99462D01*
X157469Y99996D01*
X156439Y100272D01*
D02*
G37*
G36*
X10612Y90272D02*
X10579D01*
Y86721D01*
X14130D01*
Y86754D01*
X13854Y87784D01*
X13320Y88708D01*
X12566Y89462D01*
X11642Y89996D01*
X10612Y90272D01*
D02*
G37*
G36*
X9579D02*
X9545D01*
X8515Y89996D01*
X7591Y89462D01*
X6837Y88708D01*
X6304Y87784D01*
X6028Y86754D01*
Y86721D01*
X9579D01*
Y90272D01*
D02*
G37*
G36*
X140612D02*
X139545D01*
X138515Y89996D01*
X137591Y89462D01*
X136837Y88708D01*
X136304Y87784D01*
X136028Y86754D01*
Y85687D01*
X136304Y84657D01*
X136837Y83733D01*
X137591Y82979D01*
X138515Y82445D01*
X139545Y82169D01*
X140612D01*
X141642Y82445D01*
X142566Y82979D01*
X143321Y83733D01*
X143854Y84657D01*
X144130Y85687D01*
Y86754D01*
X143854Y87784D01*
X143321Y88708D01*
X142566Y89462D01*
X141642Y89996D01*
X140612Y90272D01*
D02*
G37*
G36*
X130612D02*
X129545D01*
X128515Y89996D01*
X127591Y89462D01*
X126837Y88708D01*
X126304Y87784D01*
X126028Y86754D01*
Y85687D01*
X126304Y84657D01*
X126837Y83733D01*
X127591Y82979D01*
X128515Y82445D01*
X129545Y82169D01*
X130612D01*
X131642Y82445D01*
X132566Y82979D01*
X133320Y83733D01*
X133854Y84657D01*
X134130Y85687D01*
Y86754D01*
X133854Y87784D01*
X133320Y88708D01*
X132566Y89462D01*
X131642Y89996D01*
X130612Y90272D01*
D02*
G37*
G36*
X120612D02*
X119545D01*
X118515Y89996D01*
X117591Y89462D01*
X116837Y88708D01*
X116304Y87784D01*
X116028Y86754D01*
Y85687D01*
X116304Y84657D01*
X116837Y83733D01*
X117591Y82979D01*
X118515Y82445D01*
X119545Y82169D01*
X120612D01*
X121642Y82445D01*
X122566Y82979D01*
X123320Y83733D01*
X123854Y84657D01*
X124130Y85687D01*
Y86754D01*
X123854Y87784D01*
X123320Y88708D01*
X122566Y89462D01*
X121642Y89996D01*
X120612Y90272D01*
D02*
G37*
G36*
X110612D02*
X109545D01*
X108515Y89996D01*
X107591Y89462D01*
X106837Y88708D01*
X106304Y87784D01*
X106028Y86754D01*
Y85687D01*
X106304Y84657D01*
X106837Y83733D01*
X107591Y82979D01*
X108515Y82445D01*
X109545Y82169D01*
X110612D01*
X111642Y82445D01*
X112566Y82979D01*
X113321Y83733D01*
X113854Y84657D01*
X114130Y85687D01*
Y86754D01*
X113854Y87784D01*
X113321Y88708D01*
X112566Y89462D01*
X111642Y89996D01*
X110612Y90272D01*
D02*
G37*
G36*
X100612D02*
X99545D01*
X98515Y89996D01*
X97591Y89462D01*
X96837Y88708D01*
X96304Y87784D01*
X96028Y86754D01*
Y85687D01*
X96304Y84657D01*
X96837Y83733D01*
X97591Y82979D01*
X98515Y82445D01*
X99545Y82169D01*
X100612D01*
X101642Y82445D01*
X102566Y82979D01*
X103321Y83733D01*
X103854Y84657D01*
X104130Y85687D01*
Y86754D01*
X103854Y87784D01*
X103321Y88708D01*
X102566Y89462D01*
X101642Y89996D01*
X100612Y90272D01*
D02*
G37*
G36*
X90612D02*
X89545D01*
X88515Y89996D01*
X87591Y89462D01*
X86837Y88708D01*
X86304Y87784D01*
X86028Y86754D01*
Y85687D01*
X86304Y84657D01*
X86837Y83733D01*
X87591Y82979D01*
X88515Y82445D01*
X89545Y82169D01*
X90612D01*
X91642Y82445D01*
X92566Y82979D01*
X93321Y83733D01*
X93854Y84657D01*
X94130Y85687D01*
Y86754D01*
X93854Y87784D01*
X93321Y88708D01*
X92566Y89462D01*
X91642Y89996D01*
X90612Y90272D01*
D02*
G37*
G36*
X80612D02*
X79545D01*
X78515Y89996D01*
X77591Y89462D01*
X76837Y88708D01*
X76304Y87784D01*
X76028Y86754D01*
Y85687D01*
X76304Y84657D01*
X76837Y83733D01*
X77591Y82979D01*
X78515Y82445D01*
X79545Y82169D01*
X80612D01*
X81642Y82445D01*
X82566Y82979D01*
X83320Y83733D01*
X83854Y84657D01*
X84130Y85687D01*
Y86754D01*
X83854Y87784D01*
X83320Y88708D01*
X82566Y89462D01*
X81642Y89996D01*
X80612Y90272D01*
D02*
G37*
G36*
X70612D02*
X69545D01*
X68515Y89996D01*
X67591Y89462D01*
X66837Y88708D01*
X66304Y87784D01*
X66028Y86754D01*
Y85687D01*
X66304Y84657D01*
X66837Y83733D01*
X67591Y82979D01*
X68515Y82445D01*
X69545Y82169D01*
X70612D01*
X71642Y82445D01*
X72566Y82979D01*
X73321Y83733D01*
X73854Y84657D01*
X74130Y85687D01*
Y86754D01*
X73854Y87784D01*
X73321Y88708D01*
X72566Y89462D01*
X71642Y89996D01*
X70612Y90272D01*
D02*
G37*
G36*
X60612D02*
X59545D01*
X58515Y89996D01*
X57591Y89462D01*
X56837Y88708D01*
X56304Y87784D01*
X56028Y86754D01*
Y85687D01*
X56304Y84657D01*
X56837Y83733D01*
X57591Y82979D01*
X58515Y82445D01*
X59545Y82169D01*
X60612D01*
X61642Y82445D01*
X62566Y82979D01*
X63320Y83733D01*
X63854Y84657D01*
X64130Y85687D01*
Y86754D01*
X63854Y87784D01*
X63320Y88708D01*
X62566Y89462D01*
X61642Y89996D01*
X60612Y90272D01*
D02*
G37*
G36*
X50612D02*
X49545D01*
X48515Y89996D01*
X47591Y89462D01*
X46837Y88708D01*
X46304Y87784D01*
X46028Y86754D01*
Y85687D01*
X46304Y84657D01*
X46837Y83733D01*
X47591Y82979D01*
X48515Y82445D01*
X49545Y82169D01*
X50612D01*
X51642Y82445D01*
X52566Y82979D01*
X53320Y83733D01*
X53854Y84657D01*
X54130Y85687D01*
Y86754D01*
X53854Y87784D01*
X53320Y88708D01*
X52566Y89462D01*
X51642Y89996D01*
X50612Y90272D01*
D02*
G37*
G36*
X40612D02*
X39545D01*
X38515Y89996D01*
X37591Y89462D01*
X36837Y88708D01*
X36304Y87784D01*
X36028Y86754D01*
Y85687D01*
X36304Y84657D01*
X36837Y83733D01*
X37591Y82979D01*
X38515Y82445D01*
X39545Y82169D01*
X40612D01*
X41642Y82445D01*
X42566Y82979D01*
X43321Y83733D01*
X43854Y84657D01*
X44130Y85687D01*
Y86754D01*
X43854Y87784D01*
X43321Y88708D01*
X42566Y89462D01*
X41642Y89996D01*
X40612Y90272D01*
D02*
G37*
G36*
X30612D02*
X29545D01*
X28515Y89996D01*
X27591Y89462D01*
X26837Y88708D01*
X26304Y87784D01*
X26028Y86754D01*
Y85687D01*
X26304Y84657D01*
X26837Y83733D01*
X27591Y82979D01*
X28515Y82445D01*
X29545Y82169D01*
X30612D01*
X31642Y82445D01*
X32566Y82979D01*
X33321Y83733D01*
X33854Y84657D01*
X34130Y85687D01*
Y86754D01*
X33854Y87784D01*
X33321Y88708D01*
X32566Y89462D01*
X31642Y89996D01*
X30612Y90272D01*
D02*
G37*
G36*
X20612D02*
X19545D01*
X18515Y89996D01*
X17591Y89462D01*
X16837Y88708D01*
X16304Y87784D01*
X16028Y86754D01*
Y85687D01*
X16304Y84657D01*
X16837Y83733D01*
X17591Y82979D01*
X18515Y82445D01*
X19545Y82169D01*
X20612D01*
X21642Y82445D01*
X22566Y82979D01*
X23321Y83733D01*
X23854Y84657D01*
X24130Y85687D01*
Y86754D01*
X23854Y87784D01*
X23321Y88708D01*
X22566Y89462D01*
X21642Y89996D01*
X20612Y90272D01*
D02*
G37*
G36*
X14130Y85720D02*
X10579D01*
Y82169D01*
X10612D01*
X11642Y82445D01*
X12566Y82979D01*
X13320Y83733D01*
X13854Y84657D01*
X14130Y85687D01*
Y85720D01*
D02*
G37*
G36*
X156439Y80272D02*
X156405D01*
Y76720D01*
X159957D01*
Y76754D01*
X159681Y77784D01*
X159147Y78708D01*
X158393Y79462D01*
X157469Y79996D01*
X156439Y80272D01*
D02*
G37*
G36*
X155405D02*
X155372D01*
X154342Y79996D01*
X153418Y79462D01*
X152664Y78708D01*
X152130Y77784D01*
X151854Y76754D01*
Y76720D01*
X155405D01*
Y80272D01*
D02*
G37*
G36*
X20455Y77673D02*
X20421D01*
Y74122D01*
X23972D01*
Y74155D01*
X23696Y75186D01*
X23163Y76109D01*
X22409Y76864D01*
X21485Y77397D01*
X20455Y77673D01*
D02*
G37*
G36*
X19421D02*
X19388D01*
X18358Y77397D01*
X17434Y76864D01*
X16680Y76109D01*
X16146Y75186D01*
X15870Y74155D01*
Y74122D01*
X19421D01*
Y77673D01*
D02*
G37*
G36*
X159957Y75721D02*
X156405D01*
Y72169D01*
X156439D01*
X157469Y72445D01*
X158393Y72979D01*
X159147Y73733D01*
X159681Y74657D01*
X159957Y75687D01*
Y75721D01*
D02*
G37*
G36*
X155405D02*
X151854D01*
Y75687D01*
X152130Y74657D01*
X152664Y73733D01*
X153418Y72979D01*
X154342Y72445D01*
X155372Y72169D01*
X155405D01*
Y75721D01*
D02*
G37*
G36*
X140455Y77673D02*
X139388D01*
X138358Y77397D01*
X137434Y76864D01*
X136679Y76109D01*
X136146Y75186D01*
X135870Y74155D01*
Y73089D01*
X136146Y72058D01*
X136679Y71135D01*
X137434Y70380D01*
X138358Y69847D01*
X139388Y69571D01*
X140455D01*
X141485Y69847D01*
X142409Y70380D01*
X143163Y71135D01*
X143696Y72058D01*
X143972Y73089D01*
Y74155D01*
X143696Y75186D01*
X143163Y76109D01*
X142409Y76864D01*
X141485Y77397D01*
X140455Y77673D01*
D02*
G37*
G36*
X130455D02*
X129388D01*
X128358Y77397D01*
X127434Y76864D01*
X126680Y76109D01*
X126146Y75186D01*
X125870Y74155D01*
Y73089D01*
X126146Y72058D01*
X126680Y71135D01*
X127434Y70380D01*
X128358Y69847D01*
X129388Y69571D01*
X130455D01*
X131485Y69847D01*
X132409Y70380D01*
X133163Y71135D01*
X133696Y72058D01*
X133972Y73089D01*
Y74155D01*
X133696Y75186D01*
X133163Y76109D01*
X132409Y76864D01*
X131485Y77397D01*
X130455Y77673D01*
D02*
G37*
G36*
X120455D02*
X119388D01*
X118358Y77397D01*
X117434Y76864D01*
X116680Y76109D01*
X116146Y75186D01*
X115870Y74155D01*
Y73089D01*
X116146Y72058D01*
X116680Y71135D01*
X117434Y70380D01*
X118358Y69847D01*
X119388Y69571D01*
X120455D01*
X121485Y69847D01*
X122409Y70380D01*
X123163Y71135D01*
X123696Y72058D01*
X123972Y73089D01*
Y74155D01*
X123696Y75186D01*
X123163Y76109D01*
X122409Y76864D01*
X121485Y77397D01*
X120455Y77673D01*
D02*
G37*
G36*
X110455D02*
X109388D01*
X108358Y77397D01*
X107434Y76864D01*
X106679Y76109D01*
X106146Y75186D01*
X105870Y74155D01*
Y73089D01*
X106146Y72058D01*
X106679Y71135D01*
X107434Y70380D01*
X108358Y69847D01*
X109388Y69571D01*
X110455D01*
X111485Y69847D01*
X112409Y70380D01*
X113163Y71135D01*
X113696Y72058D01*
X113972Y73089D01*
Y74155D01*
X113696Y75186D01*
X113163Y76109D01*
X112409Y76864D01*
X111485Y77397D01*
X110455Y77673D01*
D02*
G37*
G36*
X100455D02*
X99388D01*
X98358Y77397D01*
X97434Y76864D01*
X96680Y76109D01*
X96146Y75186D01*
X95870Y74155D01*
Y73089D01*
X96146Y72058D01*
X96680Y71135D01*
X97434Y70380D01*
X98358Y69847D01*
X99388Y69571D01*
X100455D01*
X101485Y69847D01*
X102409Y70380D01*
X103163Y71135D01*
X103696Y72058D01*
X103972Y73089D01*
Y74155D01*
X103696Y75186D01*
X103163Y76109D01*
X102409Y76864D01*
X101485Y77397D01*
X100455Y77673D01*
D02*
G37*
G36*
X90455D02*
X89388D01*
X88358Y77397D01*
X87434Y76864D01*
X86680Y76109D01*
X86146Y75186D01*
X85870Y74155D01*
Y73089D01*
X86146Y72058D01*
X86680Y71135D01*
X87434Y70380D01*
X88358Y69847D01*
X89388Y69571D01*
X90455D01*
X91485Y69847D01*
X92409Y70380D01*
X93163Y71135D01*
X93696Y72058D01*
X93972Y73089D01*
Y74155D01*
X93696Y75186D01*
X93163Y76109D01*
X92409Y76864D01*
X91485Y77397D01*
X90455Y77673D01*
D02*
G37*
G36*
X80455D02*
X79388D01*
X78358Y77397D01*
X77434Y76864D01*
X76679Y76109D01*
X76146Y75186D01*
X75870Y74155D01*
Y73089D01*
X76146Y72058D01*
X76679Y71135D01*
X77434Y70380D01*
X78358Y69847D01*
X79388Y69571D01*
X80455D01*
X81485Y69847D01*
X82409Y70380D01*
X83163Y71135D01*
X83696Y72058D01*
X83972Y73089D01*
Y74155D01*
X83696Y75186D01*
X83163Y76109D01*
X82409Y76864D01*
X81485Y77397D01*
X80455Y77673D01*
D02*
G37*
G36*
X70455D02*
X69388D01*
X68358Y77397D01*
X67434Y76864D01*
X66680Y76109D01*
X66146Y75186D01*
X65870Y74155D01*
Y73089D01*
X66146Y72058D01*
X66680Y71135D01*
X67434Y70380D01*
X68358Y69847D01*
X69388Y69571D01*
X70455D01*
X71485Y69847D01*
X72409Y70380D01*
X73163Y71135D01*
X73696Y72058D01*
X73972Y73089D01*
Y74155D01*
X73696Y75186D01*
X73163Y76109D01*
X72409Y76864D01*
X71485Y77397D01*
X70455Y77673D01*
D02*
G37*
G36*
X60455D02*
X59388D01*
X58358Y77397D01*
X57434Y76864D01*
X56679Y76109D01*
X56146Y75186D01*
X55870Y74155D01*
Y73089D01*
X56146Y72058D01*
X56679Y71135D01*
X57434Y70380D01*
X58358Y69847D01*
X59388Y69571D01*
X60455D01*
X61485Y69847D01*
X62409Y70380D01*
X63163Y71135D01*
X63696Y72058D01*
X63972Y73089D01*
Y74155D01*
X63696Y75186D01*
X63163Y76109D01*
X62409Y76864D01*
X61485Y77397D01*
X60455Y77673D01*
D02*
G37*
G36*
X50455D02*
X49388D01*
X48358Y77397D01*
X47434Y76864D01*
X46679Y76109D01*
X46146Y75186D01*
X45870Y74155D01*
Y73089D01*
X46146Y72058D01*
X46679Y71135D01*
X47434Y70380D01*
X48358Y69847D01*
X49388Y69571D01*
X50455D01*
X51485Y69847D01*
X52409Y70380D01*
X53163Y71135D01*
X53696Y72058D01*
X53972Y73089D01*
Y74155D01*
X53696Y75186D01*
X53163Y76109D01*
X52409Y76864D01*
X51485Y77397D01*
X50455Y77673D01*
D02*
G37*
G36*
X40455D02*
X39388D01*
X38358Y77397D01*
X37434Y76864D01*
X36680Y76109D01*
X36146Y75186D01*
X35870Y74155D01*
Y73089D01*
X36146Y72058D01*
X36680Y71135D01*
X37434Y70380D01*
X38358Y69847D01*
X39388Y69571D01*
X40455D01*
X41485Y69847D01*
X42409Y70380D01*
X43163Y71135D01*
X43696Y72058D01*
X43972Y73089D01*
Y74155D01*
X43696Y75186D01*
X43163Y76109D01*
X42409Y76864D01*
X41485Y77397D01*
X40455Y77673D01*
D02*
G37*
G36*
X30455D02*
X29388D01*
X28358Y77397D01*
X27434Y76864D01*
X26680Y76109D01*
X26146Y75186D01*
X25870Y74155D01*
Y73089D01*
X26146Y72058D01*
X26680Y71135D01*
X27434Y70380D01*
X28358Y69847D01*
X29388Y69571D01*
X30455D01*
X31485Y69847D01*
X32409Y70380D01*
X33163Y71135D01*
X33696Y72058D01*
X33972Y73089D01*
Y74155D01*
X33696Y75186D01*
X33163Y76109D01*
X32409Y76864D01*
X31485Y77397D01*
X30455Y77673D01*
D02*
G37*
G36*
X23972Y73122D02*
X20421D01*
Y69571D01*
X20455D01*
X21485Y69847D01*
X22409Y70380D01*
X23163Y71135D01*
X23696Y72058D01*
X23972Y73089D01*
Y73122D01*
D02*
G37*
G36*
X19421D02*
X15870D01*
Y73089D01*
X16146Y72058D01*
X16680Y71135D01*
X17434Y70380D01*
X18358Y69847D01*
X19388Y69571D01*
X19421D01*
Y73122D01*
D02*
G37*
G36*
X10455Y77673D02*
X9388D01*
X8358Y77397D01*
X7434Y76864D01*
X6679Y76109D01*
X6146Y75186D01*
X5870Y74155D01*
Y73089D01*
X6146Y72058D01*
X6679Y71135D01*
X7434Y70380D01*
X8358Y69847D01*
X9388Y69571D01*
X10455D01*
X11485Y69847D01*
X12409Y70380D01*
X13163Y71135D01*
X13696Y72058D01*
X13972Y73089D01*
Y74155D01*
X13696Y75186D01*
X13163Y76109D01*
X12409Y76864D01*
X11485Y77397D01*
X10455Y77673D01*
D02*
G37*
G36*
X156439Y70272D02*
X155372D01*
X154342Y69996D01*
X153418Y69462D01*
X152664Y68708D01*
X152130Y67784D01*
X151854Y66754D01*
Y65687D01*
X152130Y64657D01*
X152664Y63733D01*
X153418Y62979D01*
X154342Y62445D01*
X155372Y62169D01*
X156439D01*
X157469Y62445D01*
X158393Y62979D01*
X159147Y63733D01*
X159681Y64657D01*
X159957Y65687D01*
Y66754D01*
X159681Y67784D01*
X159147Y68708D01*
X158393Y69462D01*
X157469Y69996D01*
X156439Y70272D01*
D02*
G37*
G36*
X140455Y67673D02*
X139388D01*
X138358Y67397D01*
X137434Y66864D01*
X136679Y66110D01*
X136146Y65186D01*
X135870Y64155D01*
Y63089D01*
X136146Y62058D01*
X136679Y61135D01*
X137434Y60380D01*
X138358Y59847D01*
X139388Y59571D01*
X140455D01*
X141485Y59847D01*
X142409Y60380D01*
X143163Y61135D01*
X143696Y62058D01*
X143972Y63089D01*
Y64155D01*
X143696Y65186D01*
X143163Y66110D01*
X142409Y66864D01*
X141485Y67397D01*
X140455Y67673D01*
D02*
G37*
G36*
X161878Y124760D02*
X160957D01*
X160066Y124521D01*
X159268Y124060D01*
X158617Y123409D01*
X158259Y122789D01*
X33858D01*
X33273Y122673D01*
X32777Y122341D01*
X28997Y118562D01*
X28666Y118066D01*
X28549Y117480D01*
Y100505D01*
X28515Y100496D01*
X27591Y99962D01*
X26837Y99208D01*
X26304Y98284D01*
X26028Y97254D01*
Y96187D01*
X26304Y95157D01*
X26837Y94233D01*
X27591Y93479D01*
X28515Y92945D01*
X29545Y92669D01*
X30612D01*
X31642Y92945D01*
X32566Y93479D01*
X33321Y94233D01*
X33854Y95157D01*
X34130Y96187D01*
Y97254D01*
X33854Y98284D01*
X33321Y99208D01*
X32566Y99962D01*
X31642Y100496D01*
X31608Y100505D01*
Y116847D01*
X34492Y119730D01*
X158259D01*
X158617Y119111D01*
X159268Y118459D01*
X160066Y117998D01*
X160891Y117777D01*
X160825Y117277D01*
X143307D01*
X142722Y117161D01*
X142226Y116830D01*
X138997Y113601D01*
X138666Y113105D01*
X138549Y112520D01*
Y100505D01*
X138515Y100496D01*
X137591Y99962D01*
X136837Y99208D01*
X136304Y98284D01*
X136028Y97254D01*
Y96187D01*
X136304Y95157D01*
X136837Y94233D01*
X137591Y93479D01*
X138515Y92945D01*
X139545Y92669D01*
X140612D01*
X141642Y92945D01*
X142566Y93479D01*
X143321Y94233D01*
X143854Y95157D01*
X144130Y96187D01*
Y97254D01*
X143854Y98284D01*
X143321Y99208D01*
X142566Y99962D01*
X141642Y100496D01*
X141608Y100505D01*
Y111886D01*
X142208Y112486D01*
X142657Y112228D01*
X142573Y111917D01*
X149553D01*
X149325Y112768D01*
X148864Y113566D01*
X148711Y113719D01*
X148918Y114219D01*
X294248D01*
X298864Y109603D01*
Y75599D01*
X298245Y75242D01*
X297593Y74590D01*
X297132Y73792D01*
X296894Y72902D01*
Y71980D01*
X297132Y71090D01*
X297593Y70292D01*
X298245Y69640D01*
X299043Y69179D01*
X299933Y68941D01*
X300854D01*
X301745Y69179D01*
X302543Y69640D01*
X303194Y70292D01*
X303655Y71090D01*
X303894Y71980D01*
Y72902D01*
X303655Y73792D01*
X303194Y74590D01*
X302543Y75242D01*
X301923Y75599D01*
Y110236D01*
X301807Y110821D01*
X301475Y111318D01*
X301475Y111318D01*
X295963Y116830D01*
X295467Y117161D01*
X294882Y117277D01*
X162010D01*
X161944Y117777D01*
X162768Y117998D01*
X163566Y118459D01*
X164218Y119111D01*
X164576Y119730D01*
X301729D01*
X308707Y112752D01*
Y57326D01*
X305089Y53708D01*
X304398Y53894D01*
X303476D01*
X302586Y53655D01*
X301788Y53194D01*
X301136Y52543D01*
X300676Y51745D01*
X300437Y50854D01*
Y49933D01*
X300676Y49043D01*
X301136Y48245D01*
X301788Y47593D01*
X302586Y47132D01*
X303476Y46894D01*
X304398D01*
X305288Y47132D01*
X306086Y47593D01*
X306738Y48245D01*
X307199Y49043D01*
X307437Y49933D01*
Y50854D01*
X307252Y51546D01*
X311318Y55611D01*
X311649Y56108D01*
X311766Y56693D01*
Y113386D01*
X311649Y113971D01*
X311318Y114467D01*
X303444Y122341D01*
X302947Y122673D01*
X302362Y122789D01*
X164576D01*
X164218Y123409D01*
X163566Y124060D01*
X162768Y124521D01*
X161878Y124760D01*
D02*
G37*
G36*
X156439Y60272D02*
X155372D01*
X154342Y59996D01*
X153418Y59462D01*
X152664Y58708D01*
X152130Y57784D01*
X151854Y56754D01*
Y55687D01*
X152130Y54657D01*
X152664Y53733D01*
X153418Y52979D01*
X154342Y52445D01*
X155372Y52169D01*
X156439D01*
X157469Y52445D01*
X158393Y52979D01*
X159147Y53733D01*
X159681Y54657D01*
X159957Y55687D01*
Y56754D01*
X159681Y57784D01*
X159147Y58708D01*
X158393Y59462D01*
X157469Y59996D01*
X156439Y60272D01*
D02*
G37*
G36*
X246169Y54671D02*
Y51681D01*
X249159D01*
X248931Y52532D01*
X248470Y53330D01*
X247818Y53982D01*
X247020Y54443D01*
X246169Y54671D01*
D02*
G37*
G36*
X245169D02*
X244318Y54443D01*
X243520Y53982D01*
X242869Y53330D01*
X242408Y52532D01*
X242180Y51681D01*
X245169D01*
Y54671D01*
D02*
G37*
G36*
X140455Y57673D02*
X139388D01*
X138358Y57397D01*
X137434Y56864D01*
X136679Y56109D01*
X136146Y55186D01*
X135870Y54155D01*
Y53089D01*
X136146Y52058D01*
X136679Y51135D01*
X137434Y50380D01*
X138358Y49847D01*
X139388Y49571D01*
X140455D01*
X141485Y49847D01*
X142409Y50380D01*
X143163Y51135D01*
X143696Y52058D01*
X143972Y53089D01*
Y54155D01*
X143696Y55186D01*
X143163Y56109D01*
X142409Y56864D01*
X141485Y57397D01*
X140455Y57673D01*
D02*
G37*
G36*
X249159Y50681D02*
X246169D01*
Y47692D01*
X247020Y47920D01*
X247818Y48380D01*
X248470Y49032D01*
X248931Y49830D01*
X249159Y50681D01*
D02*
G37*
G36*
X245169D02*
X242180D01*
X242408Y49830D01*
X242869Y49032D01*
X243520Y48380D01*
X244318Y47920D01*
X245169Y47692D01*
Y50681D01*
D02*
G37*
G36*
X156439Y50272D02*
X155372D01*
X154342Y49996D01*
X153418Y49462D01*
X152664Y48708D01*
X152130Y47784D01*
X151854Y46754D01*
Y45687D01*
X152130Y44657D01*
X152664Y43733D01*
X153418Y42979D01*
X154342Y42445D01*
X155372Y42169D01*
X156439D01*
X157469Y42445D01*
X158393Y42979D01*
X159147Y43733D01*
X159681Y44657D01*
X159957Y45687D01*
Y46754D01*
X159681Y47784D01*
X159147Y48708D01*
X158393Y49462D01*
X157469Y49996D01*
X156439Y50272D01*
D02*
G37*
G36*
X140455Y47673D02*
X139388D01*
X138358Y47397D01*
X137434Y46864D01*
X136679Y46110D01*
X136146Y45186D01*
X135870Y44155D01*
Y43089D01*
X136146Y42058D01*
X136679Y41135D01*
X137434Y40380D01*
X138358Y39847D01*
X139388Y39571D01*
X140455D01*
X141485Y39847D01*
X142409Y40380D01*
X143163Y41135D01*
X143696Y42058D01*
X143972Y43089D01*
Y44155D01*
X143696Y45186D01*
X143163Y46110D01*
X142409Y46864D01*
X141485Y47397D01*
X140455Y47673D01*
D02*
G37*
G36*
X156833Y36728D02*
X156799D01*
Y33177D01*
X160350D01*
Y33211D01*
X160074Y34241D01*
X159541Y35165D01*
X158787Y35919D01*
X157863Y36452D01*
X156833Y36728D01*
D02*
G37*
G36*
X155799D02*
X155766D01*
X154736Y36452D01*
X153812Y35919D01*
X153058Y35165D01*
X152524Y34241D01*
X152248Y33211D01*
Y33177D01*
X155799D01*
Y36728D01*
D02*
G37*
G36*
X140455Y37673D02*
X139388D01*
X138358Y37397D01*
X137434Y36864D01*
X136679Y36110D01*
X136146Y35186D01*
X135870Y34155D01*
Y33089D01*
X136146Y32058D01*
X136679Y31135D01*
X137434Y30380D01*
X138358Y29847D01*
X139388Y29571D01*
X140455D01*
X141485Y29847D01*
X142409Y30380D01*
X143163Y31135D01*
X143696Y32058D01*
X143972Y33089D01*
Y34155D01*
X143696Y35186D01*
X143163Y36110D01*
X142409Y36864D01*
X141485Y37397D01*
X140455Y37673D01*
D02*
G37*
G36*
X160350Y32177D02*
X156799D01*
Y28626D01*
X156833D01*
X157863Y28902D01*
X158787Y29435D01*
X159541Y30190D01*
X160074Y31113D01*
X160350Y32144D01*
Y32177D01*
D02*
G37*
G36*
X155799D02*
X152248D01*
Y32144D01*
X152524Y31113D01*
X153058Y30190D01*
X153812Y29435D01*
X154736Y28902D01*
X155766Y28626D01*
X155799D01*
Y32177D01*
D02*
G37*
G36*
X295776Y25930D02*
Y22941D01*
X298765D01*
X298537Y23792D01*
X298076Y24590D01*
X297425Y25242D01*
X296626Y25702D01*
X295776Y25930D01*
D02*
G37*
G36*
X294776D02*
X293925Y25702D01*
X293127Y25242D01*
X292475Y24590D01*
X292014Y23792D01*
X291786Y22941D01*
X294776D01*
Y25930D01*
D02*
G37*
G36*
X140455Y27673D02*
X139388D01*
X138358Y27397D01*
X137434Y26864D01*
X136679Y26109D01*
X136146Y25186D01*
X135870Y24155D01*
Y23089D01*
X136146Y22058D01*
X136679Y21135D01*
X137434Y20380D01*
X138358Y19847D01*
X139388Y19571D01*
X140455D01*
X141485Y19847D01*
X142409Y20380D01*
X143163Y21135D01*
X143696Y22058D01*
X143972Y23089D01*
Y24155D01*
X143696Y25186D01*
X143163Y26109D01*
X142409Y26864D01*
X141485Y27397D01*
X140455Y27673D01*
D02*
G37*
G36*
X298765Y21941D02*
X295776D01*
Y18951D01*
X296626Y19180D01*
X297425Y19640D01*
X298076Y20292D01*
X298537Y21090D01*
X298765Y21941D01*
D02*
G37*
G36*
X294776D02*
X291786D01*
X292014Y21090D01*
X292475Y20292D01*
X293127Y19640D01*
X293925Y19180D01*
X294776Y18951D01*
Y21941D01*
D02*
G37*
G36*
X156833Y22949D02*
X155766D01*
X154736Y22673D01*
X153812Y22139D01*
X153058Y21385D01*
X152524Y20461D01*
X152248Y19431D01*
Y18364D01*
X152524Y17334D01*
X153058Y16410D01*
X153812Y15656D01*
X154736Y15123D01*
X155766Y14846D01*
X156833D01*
X157863Y15123D01*
X158787Y15656D01*
X159541Y16410D01*
X160074Y17334D01*
X160350Y18364D01*
Y19431D01*
X160074Y20461D01*
X159541Y21385D01*
X158787Y22139D01*
X157863Y22673D01*
X156833Y22949D01*
D02*
G37*
G36*
X10455Y17673D02*
X10421D01*
Y14122D01*
X13972D01*
Y14155D01*
X13696Y15186D01*
X13163Y16109D01*
X12409Y16864D01*
X11485Y17397D01*
X10455Y17673D01*
D02*
G37*
G36*
X9421D02*
X9388D01*
X8358Y17397D01*
X7434Y16864D01*
X6679Y16109D01*
X6146Y15186D01*
X5870Y14155D01*
Y14122D01*
X9421D01*
Y17673D01*
D02*
G37*
G36*
X140455D02*
X139388D01*
X138358Y17397D01*
X137434Y16864D01*
X136679Y16109D01*
X136146Y15186D01*
X135870Y14155D01*
Y13089D01*
X136146Y12058D01*
X136679Y11135D01*
X137434Y10380D01*
X138358Y9847D01*
X139388Y9571D01*
X140455D01*
X141485Y9847D01*
X142409Y10380D01*
X143163Y11135D01*
X143696Y12058D01*
X143972Y13089D01*
Y14155D01*
X143696Y15186D01*
X143163Y16109D01*
X142409Y16864D01*
X141485Y17397D01*
X140455Y17673D01*
D02*
G37*
G36*
X130455D02*
X129388D01*
X128358Y17397D01*
X127434Y16864D01*
X126680Y16109D01*
X126146Y15186D01*
X125870Y14155D01*
Y13089D01*
X126146Y12058D01*
X126680Y11135D01*
X127434Y10380D01*
X128358Y9847D01*
X129388Y9571D01*
X130455D01*
X131485Y9847D01*
X132409Y10380D01*
X133163Y11135D01*
X133696Y12058D01*
X133972Y13089D01*
Y14155D01*
X133696Y15186D01*
X133163Y16109D01*
X132409Y16864D01*
X131485Y17397D01*
X130455Y17673D01*
D02*
G37*
G36*
X100455D02*
X99388D01*
X98358Y17397D01*
X97434Y16864D01*
X96680Y16109D01*
X96146Y15186D01*
X95870Y14155D01*
Y13089D01*
X96146Y12058D01*
X96680Y11135D01*
X97434Y10380D01*
X98358Y9847D01*
X99388Y9571D01*
X100455D01*
X101485Y9847D01*
X102409Y10380D01*
X103163Y11135D01*
X103696Y12058D01*
X103972Y13089D01*
Y14155D01*
X103696Y15186D01*
X103163Y16109D01*
X102409Y16864D01*
X101485Y17397D01*
X100455Y17673D01*
D02*
G37*
G36*
X90455D02*
X89388D01*
X88358Y17397D01*
X87434Y16864D01*
X86680Y16109D01*
X86146Y15186D01*
X85870Y14155D01*
Y13089D01*
X86146Y12058D01*
X86680Y11135D01*
X87434Y10380D01*
X88358Y9847D01*
X89388Y9571D01*
X90455D01*
X91485Y9847D01*
X92409Y10380D01*
X93163Y11135D01*
X93696Y12058D01*
X93972Y13089D01*
Y14155D01*
X93696Y15186D01*
X93163Y16109D01*
X92409Y16864D01*
X91485Y17397D01*
X90455Y17673D01*
D02*
G37*
G36*
X80455D02*
X79388D01*
X78358Y17397D01*
X77434Y16864D01*
X76679Y16109D01*
X76146Y15186D01*
X75870Y14155D01*
Y13089D01*
X76146Y12058D01*
X76679Y11135D01*
X77434Y10380D01*
X78358Y9847D01*
X79388Y9571D01*
X80455D01*
X81485Y9847D01*
X82409Y10380D01*
X83163Y11135D01*
X83696Y12058D01*
X83972Y13089D01*
Y14155D01*
X83696Y15186D01*
X83163Y16109D01*
X82409Y16864D01*
X81485Y17397D01*
X80455Y17673D01*
D02*
G37*
G36*
X70455D02*
X69388D01*
X68358Y17397D01*
X67434Y16864D01*
X66680Y16109D01*
X66146Y15186D01*
X65870Y14155D01*
Y13089D01*
X66146Y12058D01*
X66680Y11135D01*
X67434Y10380D01*
X68358Y9847D01*
X69388Y9571D01*
X70455D01*
X71485Y9847D01*
X72409Y10380D01*
X73163Y11135D01*
X73696Y12058D01*
X73972Y13089D01*
Y14155D01*
X73696Y15186D01*
X73163Y16109D01*
X72409Y16864D01*
X71485Y17397D01*
X70455Y17673D01*
D02*
G37*
G36*
X60455D02*
X59388D01*
X58358Y17397D01*
X57434Y16864D01*
X56679Y16109D01*
X56146Y15186D01*
X55870Y14155D01*
Y13089D01*
X56146Y12058D01*
X56679Y11135D01*
X57434Y10380D01*
X58358Y9847D01*
X59388Y9571D01*
X60455D01*
X61485Y9847D01*
X62409Y10380D01*
X63163Y11135D01*
X63696Y12058D01*
X63972Y13089D01*
Y14155D01*
X63696Y15186D01*
X63163Y16109D01*
X62409Y16864D01*
X61485Y17397D01*
X60455Y17673D01*
D02*
G37*
G36*
X50455D02*
X49388D01*
X48358Y17397D01*
X47434Y16864D01*
X46679Y16109D01*
X46146Y15186D01*
X45870Y14155D01*
Y13089D01*
X46146Y12058D01*
X46679Y11135D01*
X47434Y10380D01*
X48358Y9847D01*
X49388Y9571D01*
X50455D01*
X51485Y9847D01*
X52409Y10380D01*
X53163Y11135D01*
X53696Y12058D01*
X53972Y13089D01*
Y14155D01*
X53696Y15186D01*
X53163Y16109D01*
X52409Y16864D01*
X51485Y17397D01*
X50455Y17673D01*
D02*
G37*
G36*
X40455D02*
X39388D01*
X38358Y17397D01*
X37434Y16864D01*
X36680Y16109D01*
X36146Y15186D01*
X35870Y14155D01*
Y13089D01*
X36146Y12058D01*
X36680Y11135D01*
X37434Y10380D01*
X38358Y9847D01*
X39388Y9571D01*
X40455D01*
X41485Y9847D01*
X42409Y10380D01*
X43163Y11135D01*
X43696Y12058D01*
X43972Y13089D01*
Y14155D01*
X43696Y15186D01*
X43163Y16109D01*
X42409Y16864D01*
X41485Y17397D01*
X40455Y17673D01*
D02*
G37*
G36*
X30455D02*
X29388D01*
X28358Y17397D01*
X27434Y16864D01*
X26680Y16109D01*
X26146Y15186D01*
X25870Y14155D01*
Y13089D01*
X26146Y12058D01*
X26680Y11135D01*
X27434Y10380D01*
X28358Y9847D01*
X29388Y9571D01*
X30455D01*
X31485Y9847D01*
X32409Y10380D01*
X33163Y11135D01*
X33696Y12058D01*
X33972Y13089D01*
Y14155D01*
X33696Y15186D01*
X33163Y16109D01*
X32409Y16864D01*
X31485Y17397D01*
X30455Y17673D01*
D02*
G37*
G36*
X20455D02*
X19388D01*
X18358Y17397D01*
X17434Y16864D01*
X16680Y16109D01*
X16146Y15186D01*
X15870Y14155D01*
Y13089D01*
X16146Y12058D01*
X16680Y11135D01*
X17434Y10380D01*
X18358Y9847D01*
X19388Y9571D01*
X20455D01*
X21485Y9847D01*
X22409Y10380D01*
X23163Y11135D01*
X23696Y12058D01*
X23972Y13089D01*
Y14155D01*
X23696Y15186D01*
X23163Y16109D01*
X22409Y16864D01*
X21485Y17397D01*
X20455Y17673D01*
D02*
G37*
G36*
X13972Y13122D02*
X10421D01*
Y9571D01*
X10455D01*
X11485Y9847D01*
X12409Y10380D01*
X13163Y11135D01*
X13696Y12058D01*
X13972Y13089D01*
Y13122D01*
D02*
G37*
G36*
X9421D02*
X5870D01*
Y13089D01*
X6146Y12058D01*
X6679Y11135D01*
X7434Y10380D01*
X8358Y9847D01*
X9388Y9571D01*
X9421D01*
Y13122D01*
D02*
G37*
G36*
X173295Y20823D02*
X172374D01*
X171484Y20584D01*
X170686Y20123D01*
X170034Y19472D01*
X169573Y18674D01*
X169335Y17784D01*
Y16862D01*
X169520Y16171D01*
X161532Y8183D01*
X127523D01*
X123679Y12028D01*
X123696Y12058D01*
X123972Y13089D01*
Y14155D01*
X123696Y15186D01*
X123163Y16109D01*
X122409Y16864D01*
X121485Y17397D01*
X120455Y17673D01*
X119388D01*
X118358Y17397D01*
X117434Y16864D01*
X116680Y16109D01*
X116146Y15186D01*
X115870Y14155D01*
Y13089D01*
X116146Y12058D01*
X116680Y11135D01*
X117434Y10380D01*
X118358Y9847D01*
X119388Y9571D01*
X120455D01*
X121485Y9847D01*
X121516Y9865D01*
X125808Y5572D01*
X126304Y5241D01*
X126890Y5124D01*
X162165D01*
X162751Y5241D01*
X163247Y5572D01*
X171683Y14008D01*
X172374Y13823D01*
X173295D01*
X174186Y14061D01*
X174984Y14522D01*
X175635Y15174D01*
X176096Y15972D01*
X176335Y16862D01*
Y17784D01*
X176096Y18674D01*
X175635Y19472D01*
X174984Y20123D01*
X174186Y20584D01*
X173295Y20823D01*
D02*
G37*
G36*
X307980Y7427D02*
Y4437D01*
X310970D01*
X310742Y5288D01*
X310281Y6086D01*
X309629Y6738D01*
X308831Y7198D01*
X307980Y7427D01*
D02*
G37*
G36*
X306980D02*
X306129Y7198D01*
X305331Y6738D01*
X304680Y6086D01*
X304219Y5288D01*
X303991Y4437D01*
X306980D01*
Y7427D01*
D02*
G37*
G36*
X187469Y21216D02*
X186547D01*
X185657Y20978D01*
X184859Y20517D01*
X184207Y19866D01*
X183746Y19068D01*
X183508Y18177D01*
Y17256D01*
X183693Y16565D01*
X171414Y4285D01*
X121000Y4285D01*
X113525Y11761D01*
X113696Y12058D01*
X113972Y13089D01*
Y14155D01*
X113696Y15186D01*
X113163Y16109D01*
X112409Y16864D01*
X111485Y17397D01*
X110455Y17673D01*
X109388D01*
X108358Y17397D01*
X107434Y16864D01*
X106679Y16109D01*
X106146Y15186D01*
X105870Y14155D01*
Y13089D01*
X106146Y12058D01*
X106679Y11135D01*
X107434Y10380D01*
X108358Y9847D01*
X109388Y9571D01*
X110455D01*
X111191Y9768D01*
X119285Y1674D01*
X119285Y1674D01*
X119781Y1343D01*
X120367Y1226D01*
X172047Y1226D01*
X172633Y1343D01*
X173129Y1674D01*
X185856Y14402D01*
X186547Y14217D01*
X187469D01*
X188359Y14455D01*
X189157Y14916D01*
X189809Y15567D01*
X190269Y16366D01*
X190508Y17256D01*
Y18177D01*
X190269Y19068D01*
X189809Y19866D01*
X189157Y20517D01*
X188359Y20978D01*
X187469Y21216D01*
D02*
G37*
%LPD*%
D10*
X294882Y115748D02*
X300394Y110236D01*
X143307Y115748D02*
X294882D01*
X140079Y112520D02*
X143307Y115748D01*
X140079Y96720D02*
Y112520D01*
X162165Y6654D02*
X172835Y17323D01*
X119921Y13622D02*
X126890Y6654D01*
X162165D01*
X120367Y2756D02*
X172047Y2756D01*
X187008Y17717D01*
X302362Y121260D02*
X310236Y113386D01*
X303937Y50394D02*
X310236Y56693D01*
Y113386D01*
X300394Y72441D02*
Y110236D01*
X33858Y121260D02*
X302362D01*
X149606Y79921D02*
X155905Y86221D01*
X30079Y117480D02*
X33858Y121260D01*
X30079Y96720D02*
Y117480D01*
X7874Y79921D02*
X149606D01*
X3150Y84646D02*
X7874Y79921D01*
X3150Y89791D02*
X10079Y96720D01*
X3150Y84646D02*
Y89791D01*
X109921Y13201D02*
X120367Y2756D01*
X109921Y13201D02*
Y13622D01*
X0Y0D02*
X314961D01*
Y133858D01*
X0D02*
X314961D01*
X0Y0D02*
Y133858D01*
D40*
X109921Y13622D02*
D03*
X9921D02*
D03*
X19921D02*
D03*
X29921D02*
D03*
X39921D02*
D03*
X49921D02*
D03*
X59921D02*
D03*
X69921D02*
D03*
X79921D02*
D03*
X89921D02*
D03*
X99921D02*
D03*
X119921D02*
D03*
X9921Y73622D02*
D03*
X49921D02*
D03*
X59921D02*
D03*
X69921D02*
D03*
X79921D02*
D03*
X89921D02*
D03*
X99921D02*
D03*
X109921D02*
D03*
X119921D02*
D03*
X129921D02*
D03*
X139921Y63622D02*
D03*
Y53622D02*
D03*
Y43622D02*
D03*
Y33622D02*
D03*
Y23622D02*
D03*
X129921Y13622D02*
D03*
X139921D02*
D03*
Y73622D02*
D03*
X19921D02*
D03*
X29921D02*
D03*
X39921D02*
D03*
X155905Y56221D02*
D03*
Y76221D02*
D03*
Y86221D02*
D03*
Y66220D02*
D03*
Y46220D02*
D03*
Y96220D02*
D03*
X156299Y32677D02*
D03*
Y18898D02*
D03*
X120079Y86221D02*
D03*
X40079Y96720D02*
D03*
X30079D02*
D03*
X20079D02*
D03*
X140079D02*
D03*
X130079D02*
D03*
X120079D02*
D03*
X110079D02*
D03*
X100079D02*
D03*
X90079D02*
D03*
X80079D02*
D03*
X70079D02*
D03*
X60079D02*
D03*
X50079D02*
D03*
X10079D02*
D03*
Y86221D02*
D03*
X70079D02*
D03*
X110079D02*
D03*
X60079D02*
D03*
X40079D02*
D03*
X50079D02*
D03*
X30079D02*
D03*
X20079D02*
D03*
X130079D02*
D03*
X100079D02*
D03*
X90079D02*
D03*
X80079D02*
D03*
X140079D02*
D03*
D41*
X146063Y111417D02*
D03*
X172835Y17323D02*
D03*
X295276Y22441D02*
D03*
X268898Y104724D02*
D03*
X300394Y72441D02*
D03*
X309449Y127559D02*
D03*
X307480Y3937D02*
D03*
X303937Y50394D02*
D03*
X187008Y17717D02*
D03*
X245669Y51181D02*
D03*
X161417Y121260D02*
D03*
X10630Y123228D02*
D03*
M02*
