G04*
G04 #@! TF.GenerationSoftware,Altium Limited,Altium Designer,21.7.2 (23)*
G04*
G04 Layer_Physical_Order=1*
G04 Layer_Color=255*
%FSLAX25Y25*%
%MOIN*%
G70*
G04*
G04 #@! TF.SameCoordinates,B8BBB409-1C5D-4E28-8008-B1E3FC97E4F7*
G04*
G04*
G04 #@! TF.FilePolarity,Positive*
G04*
G01*
G75*
%ADD10C,0.01000*%
%ADD12R,0.02756X0.03937*%
%ADD13R,0.12008X0.05118*%
%ADD14R,0.02362X0.02756*%
%ADD15R,0.03583X0.04803*%
%ADD16R,0.02362X0.05512*%
%ADD17R,0.05118X0.00984*%
%ADD18R,0.11024X0.06299*%
%ADD19R,0.05118X0.02756*%
%ADD20R,0.02756X0.05118*%
%ADD21R,0.02362X0.03543*%
%ADD22R,0.06299X0.03543*%
%ADD23R,0.03543X0.02362*%
%ADD24R,0.03543X0.06299*%
%ADD40C,0.06102*%
%ADD41C,0.05000*%
G36*
X293927Y95636D02*
X293887Y95587D01*
X292626D01*
Y94095D01*
X291626D01*
Y95587D01*
X288567D01*
Y93655D01*
X261024D01*
X260438Y93539D01*
X259942Y93207D01*
X249457Y82722D01*
X246669D01*
Y83752D01*
X244488D01*
X242307D01*
Y82722D01*
X240758D01*
Y87024D01*
X236396D01*
Y86181D01*
X235449D01*
Y86833D01*
X232068D01*
X229237Y89664D01*
X228741Y89996D01*
X228156Y90112D01*
X226000D01*
Y91551D01*
X222260D01*
Y91555D01*
X220382D01*
Y88587D01*
Y85618D01*
X221244D01*
Y85614D01*
X226000D01*
Y87053D01*
X227522D01*
X229906Y84670D01*
Y82471D01*
X235449D01*
Y83122D01*
X236396D01*
Y81480D01*
X236956D01*
X237223Y80980D01*
X237170Y80900D01*
X237056Y80331D01*
X236402D01*
X236402Y80331D01*
X235913Y80180D01*
X235449Y80296D01*
Y80921D01*
X230016D01*
Y81748D01*
X224433D01*
Y79509D01*
X224115Y79192D01*
X223784Y78695D01*
X223668Y78110D01*
Y74032D01*
X223016D01*
Y68488D01*
X227378D01*
Y74032D01*
X226726D01*
Y74945D01*
X229933D01*
X230172Y74734D01*
X230299Y74562D01*
Y66323D01*
X235842D01*
Y74622D01*
X234600D01*
Y76559D01*
X235449D01*
X235449Y76559D01*
Y76559D01*
X235503Y76506D01*
X235533Y76478D01*
X236029Y76146D01*
X236402Y76072D01*
Y74787D01*
X240764D01*
Y79663D01*
X242313D01*
Y78059D01*
X244494D01*
X246675D01*
Y79663D01*
X250091D01*
X250676Y79780D01*
X251172Y80111D01*
X256276Y85216D01*
X256738Y85024D01*
Y73244D01*
X255612D01*
Y70472D01*
Y67701D01*
X256738D01*
Y66945D01*
X252347D01*
Y59827D01*
X257103D01*
Y61856D01*
X257480D01*
X258066Y61973D01*
X258562Y62304D01*
X259327Y63069D01*
X259423Y63063D01*
X259827Y62907D01*
Y59827D01*
X261705D01*
Y63386D01*
Y66945D01*
X260244Y66945D01*
X259991Y67445D01*
X260180Y67701D01*
X263205D01*
Y73244D01*
X262553D01*
Y84800D01*
X264413Y86660D01*
X279700D01*
X279892Y86198D01*
X266029Y72335D01*
X265697Y71838D01*
X265581Y71253D01*
Y34460D01*
X264540Y33419D01*
X209055D01*
X208470Y33303D01*
X207974Y32971D01*
X206399Y31396D01*
X206067Y30900D01*
X205951Y30315D01*
Y14779D01*
X203921D01*
Y11493D01*
X203459Y11302D01*
X202317Y12444D01*
Y15339D01*
X204346D01*
Y20095D01*
X197228D01*
Y19247D01*
X190166D01*
X189809Y19866D01*
X189157Y20517D01*
X188359Y20978D01*
X187469Y21216D01*
X186547D01*
X185657Y20978D01*
X184859Y20517D01*
X184207Y19866D01*
X183746Y19068D01*
X183508Y18177D01*
Y17256D01*
X183746Y16366D01*
X184207Y15567D01*
X184859Y14916D01*
X185657Y14455D01*
X186547Y14217D01*
X187469D01*
X188359Y14455D01*
X189157Y14916D01*
X189809Y15567D01*
X190167Y16188D01*
X197228D01*
Y15339D01*
X199258D01*
Y11811D01*
X199374Y11226D01*
X199706Y10730D01*
X203052Y7383D01*
X203549Y7052D01*
X203921Y6978D01*
Y5421D01*
X207480D01*
Y4421D01*
X203921D01*
Y3498D01*
X188822D01*
X176149Y16171D01*
X176335Y16862D01*
Y17784D01*
X176096Y18674D01*
X175635Y19472D01*
X174984Y20123D01*
X174186Y20584D01*
X173295Y20823D01*
X172374D01*
X171484Y20584D01*
X170686Y20123D01*
X170034Y19472D01*
X169573Y18674D01*
X169335Y17784D01*
Y16862D01*
X169573Y15972D01*
X170034Y15174D01*
X170686Y14522D01*
X171484Y14061D01*
X172374Y13823D01*
X173295D01*
X173987Y14008D01*
X187108Y887D01*
X187604Y556D01*
X187883Y500D01*
X187834Y0D01*
X161332D01*
X161039Y379D01*
X161039Y500D01*
Y2257D01*
X157480D01*
Y3257D01*
X161039D01*
Y3982D01*
X164769D01*
X165354Y4099D01*
X165850Y4430D01*
X166436Y5016D01*
X166767Y5512D01*
X166884Y6098D01*
Y56772D01*
X166767Y57357D01*
X166436Y57853D01*
X159663Y64626D01*
X159681Y64657D01*
X159957Y65687D01*
Y66754D01*
X159681Y67784D01*
X159147Y68708D01*
X158393Y69462D01*
X157469Y69996D01*
X156439Y70272D01*
X155372D01*
X154342Y69996D01*
X153418Y69462D01*
X152664Y68708D01*
X152130Y67784D01*
X151854Y66754D01*
Y65687D01*
X152130Y64657D01*
X152664Y63733D01*
X153418Y62979D01*
X154342Y62445D01*
X155372Y62169D01*
X156439D01*
X157469Y62445D01*
X157500Y62463D01*
X163825Y56138D01*
Y51057D01*
X163325Y50905D01*
X163207Y51082D01*
X159663Y54626D01*
X159681Y54657D01*
X159957Y55687D01*
Y56754D01*
X159681Y57784D01*
X159147Y58708D01*
X158393Y59462D01*
X157469Y59996D01*
X156439Y60272D01*
X155372D01*
X154342Y59996D01*
X153418Y59462D01*
X152664Y58708D01*
X152130Y57784D01*
X151854Y56754D01*
Y55687D01*
X152130Y54657D01*
X152664Y53733D01*
X153418Y52979D01*
X154342Y52445D01*
X155372Y52169D01*
X156439D01*
X157469Y52445D01*
X157500Y52463D01*
X160596Y49367D01*
Y34227D01*
X160096Y34161D01*
X160074Y34241D01*
X159541Y35165D01*
X158787Y35919D01*
X157863Y36452D01*
X156833Y36728D01*
X156799D01*
Y32677D01*
Y28626D01*
X156833D01*
X157863Y28902D01*
X158787Y29435D01*
X159541Y30190D01*
X160074Y31113D01*
X160096Y31194D01*
X160596Y31128D01*
Y20447D01*
X160096Y20381D01*
X160074Y20461D01*
X159541Y21385D01*
X158787Y22139D01*
X157863Y22673D01*
X156833Y22949D01*
X155766D01*
X154736Y22673D01*
X154705Y22655D01*
X149955Y27405D01*
Y89809D01*
X153058D01*
X153265Y89309D01*
X152664Y88708D01*
X152130Y87784D01*
X151854Y86754D01*
Y85687D01*
X152130Y84657D01*
X152664Y83733D01*
X153418Y82979D01*
X154342Y82445D01*
X155372Y82169D01*
X156439D01*
X157469Y82445D01*
X158393Y82979D01*
X159147Y83733D01*
X159681Y84657D01*
X159753Y84927D01*
X166847D01*
X168037Y83737D01*
Y81709D01*
X167386D01*
Y74197D01*
X171748D01*
Y81709D01*
X171096D01*
Y84370D01*
X170980Y84955D01*
X170648Y85452D01*
X168562Y87538D01*
X168066Y87870D01*
X167480Y87986D01*
X159564D01*
X159147Y88708D01*
X158546Y89309D01*
X158753Y89809D01*
X166142D01*
X166727Y89926D01*
X167223Y90257D01*
X170766Y93800D01*
X171098Y94297D01*
X171214Y94882D01*
Y95063D01*
X171866D01*
Y102575D01*
X167504D01*
Y95063D01*
X167504Y95063D01*
X167504D01*
X167292Y94651D01*
X165508Y92868D01*
X158989D01*
X158782Y93368D01*
X159147Y93733D01*
X159681Y94657D01*
X159957Y95687D01*
Y96754D01*
X159681Y97784D01*
X159147Y98708D01*
X158393Y99462D01*
X157469Y99996D01*
X156439Y100272D01*
X155372D01*
X154342Y99996D01*
X153418Y99462D01*
X152664Y98708D01*
X152130Y97784D01*
X151854Y96754D01*
Y95687D01*
X152130Y94657D01*
X152664Y93733D01*
X153029Y93368D01*
X152822Y92868D01*
X149011D01*
X148426Y92752D01*
X147930Y92420D01*
X147637Y92127D01*
X147637Y92127D01*
X147637Y92127D01*
X147344Y91834D01*
X147012Y91338D01*
X146896Y90753D01*
Y26772D01*
X147012Y26186D01*
X147344Y25690D01*
X152542Y20492D01*
X152524Y20461D01*
X152248Y19431D01*
Y18364D01*
X152524Y17334D01*
X153058Y16410D01*
X153812Y15656D01*
X154736Y15123D01*
X155766Y14846D01*
X156833D01*
X157863Y15123D01*
X158787Y15656D01*
X159541Y16410D01*
X160074Y17334D01*
X160096Y17414D01*
X160596Y17348D01*
Y12614D01*
X153921D01*
Y12614D01*
X153559D01*
Y12614D01*
X146441D01*
Y7858D01*
X153559D01*
Y7858D01*
X153921D01*
Y7858D01*
X161039D01*
Y8707D01*
X161539D01*
X162125Y8823D01*
X162621Y9155D01*
X163207Y9741D01*
X163325Y9918D01*
X163825Y9766D01*
Y7041D01*
X31928D01*
X31451Y7519D01*
Y9838D01*
X31485Y9847D01*
X32409Y10380D01*
X33163Y11135D01*
X33696Y12058D01*
X33972Y13089D01*
Y14155D01*
X33696Y15186D01*
X33679Y15216D01*
X35554Y17092D01*
X35885Y17588D01*
X36002Y18173D01*
Y71308D01*
X36502Y71442D01*
X36680Y71135D01*
X37434Y70380D01*
X38358Y69847D01*
X39388Y69571D01*
X40455D01*
X41485Y69847D01*
X42409Y70380D01*
X42481Y70453D01*
X42943Y70261D01*
Y18807D01*
X41516Y17379D01*
X41485Y17397D01*
X40455Y17673D01*
X39388D01*
X38358Y17397D01*
X37434Y16864D01*
X36680Y16109D01*
X36146Y15186D01*
X35870Y14155D01*
Y13089D01*
X36146Y12058D01*
X36680Y11135D01*
X37434Y10380D01*
X38358Y9847D01*
X39388Y9571D01*
X40455D01*
X41485Y9847D01*
X42409Y10380D01*
X43163Y11135D01*
X43696Y12058D01*
X43972Y13089D01*
Y14155D01*
X43696Y15186D01*
X43679Y15216D01*
X45554Y17092D01*
X45885Y17588D01*
X46002Y18173D01*
Y71308D01*
X46502Y71442D01*
X46679Y71135D01*
X47434Y70380D01*
X48358Y69847D01*
X49388Y69571D01*
X50455D01*
X51485Y69847D01*
X52409Y70380D01*
X52481Y70453D01*
X52943Y70261D01*
Y18807D01*
X51516Y17379D01*
X51485Y17397D01*
X50455Y17673D01*
X49388D01*
X48358Y17397D01*
X47434Y16864D01*
X46679Y16109D01*
X46146Y15186D01*
X45870Y14155D01*
Y13089D01*
X46146Y12058D01*
X46679Y11135D01*
X47434Y10380D01*
X48358Y9847D01*
X49388Y9571D01*
X50455D01*
X51485Y9847D01*
X52409Y10380D01*
X53163Y11135D01*
X53696Y12058D01*
X53972Y13089D01*
Y14155D01*
X53696Y15186D01*
X53679Y15216D01*
X55554Y17092D01*
X55885Y17588D01*
X56002Y18173D01*
Y71308D01*
X56502Y71442D01*
X56679Y71135D01*
X57434Y70380D01*
X58358Y69847D01*
X59388Y69571D01*
X60455D01*
X61485Y69847D01*
X62409Y70380D01*
X62481Y70453D01*
X62943Y70261D01*
Y18807D01*
X61516Y17379D01*
X61485Y17397D01*
X60455Y17673D01*
X59388D01*
X58358Y17397D01*
X57434Y16864D01*
X56679Y16109D01*
X56146Y15186D01*
X55870Y14155D01*
Y13089D01*
X56146Y12058D01*
X56679Y11135D01*
X57434Y10380D01*
X58358Y9847D01*
X59388Y9571D01*
X60455D01*
X61485Y9847D01*
X62409Y10380D01*
X63163Y11135D01*
X63696Y12058D01*
X63972Y13089D01*
Y14155D01*
X63696Y15186D01*
X63679Y15216D01*
X65554Y17092D01*
X65885Y17588D01*
X66002Y18173D01*
Y71308D01*
X66502Y71442D01*
X66680Y71135D01*
X67434Y70380D01*
X68358Y69847D01*
X69388Y69571D01*
X70455D01*
X71485Y69847D01*
X72409Y70380D01*
X72481Y70453D01*
X72943Y70261D01*
Y18807D01*
X71516Y17379D01*
X71485Y17397D01*
X70455Y17673D01*
X69388D01*
X68358Y17397D01*
X67434Y16864D01*
X66680Y16109D01*
X66146Y15186D01*
X65870Y14155D01*
Y13089D01*
X66146Y12058D01*
X66680Y11135D01*
X67434Y10380D01*
X68358Y9847D01*
X69388Y9571D01*
X70455D01*
X71485Y9847D01*
X72409Y10380D01*
X73163Y11135D01*
X73696Y12058D01*
X73972Y13089D01*
Y14155D01*
X73696Y15186D01*
X73679Y15216D01*
X75554Y17092D01*
X75885Y17588D01*
X76002Y18173D01*
Y71308D01*
X76502Y71442D01*
X76679Y71135D01*
X77434Y70380D01*
X78358Y69847D01*
X79388Y69571D01*
X80455D01*
X81485Y69847D01*
X82409Y70380D01*
X82481Y70453D01*
X82943Y70261D01*
Y18807D01*
X81516Y17379D01*
X81485Y17397D01*
X80455Y17673D01*
X79388D01*
X78358Y17397D01*
X77434Y16864D01*
X76679Y16109D01*
X76146Y15186D01*
X75870Y14155D01*
Y13089D01*
X76146Y12058D01*
X76679Y11135D01*
X77434Y10380D01*
X78358Y9847D01*
X79388Y9571D01*
X80455D01*
X81485Y9847D01*
X82409Y10380D01*
X83163Y11135D01*
X83696Y12058D01*
X83972Y13089D01*
Y14155D01*
X83696Y15186D01*
X83679Y15216D01*
X85554Y17092D01*
X85885Y17588D01*
X86002Y18173D01*
Y71308D01*
X86502Y71442D01*
X86680Y71135D01*
X87434Y70380D01*
X88358Y69847D01*
X89388Y69571D01*
X90455D01*
X91485Y69847D01*
X92409Y70380D01*
X92481Y70453D01*
X92943Y70261D01*
Y18807D01*
X91516Y17379D01*
X91485Y17397D01*
X90455Y17673D01*
X89388D01*
X88358Y17397D01*
X87434Y16864D01*
X86680Y16109D01*
X86146Y15186D01*
X85870Y14155D01*
Y13089D01*
X86146Y12058D01*
X86680Y11135D01*
X87434Y10380D01*
X88358Y9847D01*
X89388Y9571D01*
X90455D01*
X91485Y9847D01*
X92409Y10380D01*
X93163Y11135D01*
X93696Y12058D01*
X93972Y13089D01*
Y14155D01*
X93696Y15186D01*
X93679Y15216D01*
X95554Y17092D01*
X95885Y17588D01*
X96002Y18173D01*
Y71308D01*
X96502Y71442D01*
X96680Y71135D01*
X97434Y70380D01*
X98358Y69847D01*
X99388Y69571D01*
X100455D01*
X101485Y69847D01*
X102409Y70380D01*
X102481Y70453D01*
X102943Y70261D01*
Y18807D01*
X101516Y17379D01*
X101485Y17397D01*
X100455Y17673D01*
X99388D01*
X98358Y17397D01*
X97434Y16864D01*
X96680Y16109D01*
X96146Y15186D01*
X95870Y14155D01*
Y13089D01*
X96146Y12058D01*
X96680Y11135D01*
X97434Y10380D01*
X98358Y9847D01*
X99388Y9571D01*
X100455D01*
X101485Y9847D01*
X102409Y10380D01*
X103163Y11135D01*
X103696Y12058D01*
X103972Y13089D01*
Y14155D01*
X103696Y15186D01*
X103679Y15216D01*
X105554Y17092D01*
X105885Y17588D01*
X106002Y18173D01*
Y71308D01*
X106502Y71442D01*
X106679Y71135D01*
X107434Y70380D01*
X108358Y69847D01*
X109388Y69571D01*
X110455D01*
X111485Y69847D01*
X112409Y70380D01*
X112481Y70453D01*
X112943Y70261D01*
Y18807D01*
X111516Y17379D01*
X111485Y17397D01*
X110455Y17673D01*
X109388D01*
X108358Y17397D01*
X107434Y16864D01*
X106679Y16109D01*
X106146Y15186D01*
X105870Y14155D01*
Y13089D01*
X106146Y12058D01*
X106679Y11135D01*
X107434Y10380D01*
X108358Y9847D01*
X109388Y9571D01*
X110455D01*
X111485Y9847D01*
X112409Y10380D01*
X113163Y11135D01*
X113696Y12058D01*
X113972Y13089D01*
Y14155D01*
X113696Y15186D01*
X113679Y15216D01*
X115554Y17092D01*
X115885Y17588D01*
X116002Y18173D01*
Y71308D01*
X116502Y71442D01*
X116680Y71135D01*
X117434Y70380D01*
X118358Y69847D01*
X119388Y69571D01*
X120455D01*
X121485Y69847D01*
X122409Y70380D01*
X122481Y70453D01*
X122943Y70261D01*
Y18807D01*
X121516Y17379D01*
X121485Y17397D01*
X120455Y17673D01*
X119388D01*
X118358Y17397D01*
X117434Y16864D01*
X116680Y16109D01*
X116146Y15186D01*
X115870Y14155D01*
Y13089D01*
X116146Y12058D01*
X116680Y11135D01*
X117434Y10380D01*
X118358Y9847D01*
X119388Y9571D01*
X120455D01*
X121485Y9847D01*
X122409Y10380D01*
X123163Y11135D01*
X123696Y12058D01*
X123972Y13089D01*
Y14155D01*
X123696Y15186D01*
X123679Y15216D01*
X125554Y17092D01*
X125885Y17588D01*
X126002Y18173D01*
Y71308D01*
X126502Y71442D01*
X126680Y71135D01*
X127434Y70380D01*
X128358Y69847D01*
X129388Y69571D01*
X130455D01*
X131485Y69847D01*
X132409Y70380D01*
X132481Y70453D01*
X132943Y70261D01*
Y18807D01*
X131516Y17379D01*
X131485Y17397D01*
X130455Y17673D01*
X129388D01*
X128358Y17397D01*
X127434Y16864D01*
X126680Y16109D01*
X126146Y15186D01*
X125870Y14155D01*
Y13089D01*
X126146Y12058D01*
X126680Y11135D01*
X127434Y10380D01*
X128358Y9847D01*
X129388Y9571D01*
X130455D01*
X131485Y9847D01*
X132409Y10380D01*
X133163Y11135D01*
X133696Y12058D01*
X133972Y13089D01*
Y14155D01*
X133696Y15186D01*
X133679Y15216D01*
X135554Y17092D01*
X135885Y17588D01*
X136002Y18173D01*
Y21308D01*
X136502Y21442D01*
X136679Y21135D01*
X137434Y20380D01*
X138358Y19847D01*
X139388Y19571D01*
X140455D01*
X141485Y19847D01*
X142409Y20380D01*
X142481Y20453D01*
X142943Y20261D01*
Y18807D01*
X141516Y17379D01*
X141485Y17397D01*
X140455Y17673D01*
X139388D01*
X138358Y17397D01*
X137434Y16864D01*
X136679Y16109D01*
X136146Y15186D01*
X135870Y14155D01*
Y13089D01*
X136146Y12058D01*
X136679Y11135D01*
X137434Y10380D01*
X138358Y9847D01*
X139388Y9571D01*
X140455D01*
X141485Y9847D01*
X142409Y10380D01*
X143163Y11135D01*
X143696Y12058D01*
X143972Y13089D01*
Y14155D01*
X143696Y15186D01*
X143679Y15216D01*
X145554Y17092D01*
X145885Y17588D01*
X146002Y18173D01*
Y81827D01*
X145885Y82412D01*
X145554Y82908D01*
X143836Y84626D01*
X143854Y84657D01*
X144130Y85687D01*
Y86754D01*
X143854Y87784D01*
X143321Y88708D01*
X142566Y89462D01*
X141642Y89996D01*
X140612Y90272D01*
X140510D01*
X140318Y90734D01*
X140673Y91088D01*
X141004Y91584D01*
X141121Y92169D01*
Y92806D01*
X141642Y92945D01*
X142566Y93479D01*
X143321Y94233D01*
X143854Y95157D01*
X144130Y96187D01*
Y97254D01*
X143854Y98284D01*
X143321Y99208D01*
X142566Y99962D01*
X141642Y100496D01*
X140612Y100772D01*
X139545D01*
X138515Y100496D01*
X137591Y99962D01*
X136962Y99333D01*
X136462Y99511D01*
Y105102D01*
X139976D01*
Y105268D01*
X140438Y105460D01*
X140843Y105055D01*
X141339Y104724D01*
X141924Y104607D01*
X203195D01*
Y102181D01*
X197721D01*
Y99561D01*
X195669D01*
X195084Y99445D01*
X194588Y99113D01*
X190651Y95176D01*
X190319Y94680D01*
X190203Y94095D01*
Y31060D01*
X190028Y30798D01*
X189911Y30213D01*
X190028Y29627D01*
X190359Y29131D01*
X195375Y24115D01*
X195871Y23784D01*
X196457Y23667D01*
X197228D01*
Y22819D01*
X204346D01*
Y27575D01*
X197228D01*
Y27295D01*
X196728Y27088D01*
X193262Y30555D01*
Y93461D01*
X196303Y96502D01*
X197721D01*
Y95063D01*
X211728D01*
Y96502D01*
X213764D01*
Y95772D01*
X218520D01*
Y101709D01*
X213764D01*
Y99561D01*
X211728D01*
Y102181D01*
X206254D01*
Y105164D01*
X207859D01*
Y103134D01*
X212615D01*
Y110252D01*
X211766D01*
Y111954D01*
X232949D01*
Y111302D01*
X238492D01*
Y111954D01*
X240823D01*
Y111106D01*
X247941D01*
Y111954D01*
X250665D01*
Y111302D01*
X256209D01*
Y111954D01*
X258343D01*
Y110509D01*
X266642D01*
Y116052D01*
X258343D01*
Y115013D01*
X256209D01*
Y115665D01*
X250665D01*
Y115013D01*
X247941D01*
Y115861D01*
X240823D01*
Y115013D01*
X238492D01*
Y115665D01*
X232949D01*
Y115013D01*
X211121D01*
X210536Y114897D01*
X210040Y114565D01*
X209156Y113681D01*
X208824Y113184D01*
X208707Y112599D01*
Y110252D01*
X207859D01*
Y108222D01*
X205281D01*
X204696Y108106D01*
X204199Y107774D01*
X204091Y107666D01*
X162947D01*
Y118101D01*
X163566Y118459D01*
X164218Y119111D01*
X164679Y119909D01*
X164917Y120799D01*
Y121721D01*
X164679Y122611D01*
X164218Y123409D01*
X163566Y124060D01*
X162768Y124521D01*
X161878Y124760D01*
X160957D01*
X160066Y124521D01*
X159268Y124060D01*
X158617Y123409D01*
X158156Y122611D01*
X157917Y121721D01*
Y120799D01*
X158156Y119909D01*
X158617Y119111D01*
X159268Y118459D01*
X159888Y118101D01*
Y107666D01*
X153498D01*
Y119493D01*
X153382Y120078D01*
X153050Y120574D01*
X152464Y121160D01*
X151968Y121492D01*
X151383Y121608D01*
X139982D01*
Y122850D01*
X137842D01*
X137650Y123312D01*
X140655Y126317D01*
X293927Y126317D01*
Y95636D01*
D02*
G37*
G36*
X139436Y129259D02*
X138940Y128928D01*
X133852Y123839D01*
X133520Y123343D01*
X133422Y122850D01*
X129709D01*
Y117307D01*
X129709D01*
Y116945D01*
X129709D01*
Y111402D01*
X130360D01*
Y109858D01*
X130102D01*
Y109010D01*
X106648D01*
Y125801D01*
X110604Y129758D01*
X139380D01*
X139436Y129259D01*
D02*
G37*
G36*
X150439Y107666D02*
X147517D01*
X147414Y108156D01*
X148212Y108617D01*
X148864Y109268D01*
X149325Y110066D01*
X149553Y110917D01*
X142573D01*
X142801Y110066D01*
X143262Y109268D01*
X143914Y108617D01*
X144712Y108156D01*
X144609Y107666D01*
X142558D01*
X141662Y108562D01*
X141166Y108893D01*
X140580Y109010D01*
X139976D01*
Y109858D01*
X136462D01*
Y111402D01*
X137301D01*
Y114173D01*
X137801D01*
Y114673D01*
X139982D01*
Y116945D01*
X139982D01*
Y117307D01*
X139982D01*
Y118549D01*
X150439D01*
Y107666D01*
D02*
G37*
G36*
X130102Y105102D02*
X133404D01*
Y99832D01*
X132904Y99625D01*
X132566Y99962D01*
X131642Y100496D01*
X130612Y100772D01*
X129545D01*
X128515Y100496D01*
X127591Y99962D01*
X126837Y99208D01*
X126304Y98284D01*
X126028Y97254D01*
Y96187D01*
X126304Y95157D01*
X126837Y94233D01*
X127591Y93479D01*
X127965Y93263D01*
X128007Y92748D01*
X124446Y89187D01*
X124115Y88691D01*
X124062Y88424D01*
X123535Y88337D01*
X123320Y88708D01*
X122566Y89462D01*
X121642Y89996D01*
X120612Y90272D01*
X120510D01*
X120318Y90734D01*
X120673Y91088D01*
X121004Y91584D01*
X121121Y92169D01*
Y92806D01*
X121642Y92945D01*
X122566Y93479D01*
X123320Y94233D01*
X123854Y95157D01*
X124130Y96187D01*
Y97254D01*
X123854Y98284D01*
X123320Y99208D01*
X122566Y99962D01*
X121642Y100496D01*
X120612Y100772D01*
X119545D01*
X118515Y100496D01*
X117591Y99962D01*
X116837Y99208D01*
X116304Y98284D01*
X116028Y97254D01*
Y96187D01*
X116304Y95157D01*
X116837Y94233D01*
X117591Y93479D01*
X117965Y93263D01*
X118007Y92748D01*
X114446Y89187D01*
X114115Y88691D01*
X114062Y88424D01*
X113534Y88337D01*
X113321Y88708D01*
X112566Y89462D01*
X111642Y89996D01*
X110612Y90272D01*
X109545D01*
X108515Y89996D01*
X107591Y89462D01*
X107519Y89390D01*
X107057Y89581D01*
Y91536D01*
X108484Y92963D01*
X108515Y92945D01*
X109545Y92669D01*
X110612D01*
X111642Y92945D01*
X112566Y93479D01*
X113321Y94233D01*
X113854Y95157D01*
X114130Y96187D01*
Y97254D01*
X113854Y98284D01*
X113321Y99208D01*
X112566Y99962D01*
X111642Y100496D01*
X110612Y100772D01*
X109545D01*
X108515Y100496D01*
X107591Y99962D01*
X107148Y99519D01*
X106648Y99726D01*
Y105951D01*
X130102D01*
Y105102D01*
D02*
G37*
G36*
X23998Y83907D02*
Y78016D01*
X24115Y77430D01*
X24446Y76934D01*
X26164Y75217D01*
X26146Y75186D01*
X25870Y74155D01*
Y73089D01*
X26146Y72058D01*
X26680Y71135D01*
X27434Y70380D01*
X28358Y69847D01*
X29388Y69571D01*
X30455D01*
X31485Y69847D01*
X32409Y70380D01*
X32481Y70453D01*
X32943Y70261D01*
Y18807D01*
X31516Y17379D01*
X31485Y17397D01*
X30455Y17673D01*
X29388D01*
X28358Y17397D01*
X27434Y16864D01*
X26680Y16109D01*
X26146Y15186D01*
X25870Y14155D01*
Y13089D01*
X26146Y12058D01*
X26680Y11135D01*
X27434Y10380D01*
X28358Y9847D01*
X28392Y9838D01*
Y6885D01*
X28508Y6300D01*
X28840Y5804D01*
X29857Y4786D01*
X29650Y4286D01*
X23074D01*
X21214Y6145D01*
Y9775D01*
X21485Y9847D01*
X22409Y10380D01*
X23163Y11135D01*
X23696Y12058D01*
X23972Y13089D01*
Y14155D01*
X23696Y15186D01*
X23163Y16109D01*
X22409Y16864D01*
X21485Y17397D01*
X20455Y17673D01*
X19388D01*
X18358Y17397D01*
X18327Y17379D01*
X16899Y18807D01*
Y70261D01*
X17361Y70453D01*
X17434Y70380D01*
X18358Y69847D01*
X19388Y69571D01*
X19421D01*
Y73622D01*
Y77673D01*
X19388D01*
X18358Y77397D01*
X17434Y76864D01*
X17361Y76791D01*
X16899Y76983D01*
Y80878D01*
X18484Y82463D01*
X18515Y82445D01*
X19545Y82169D01*
X20612D01*
X21642Y82445D01*
X22566Y82979D01*
X23321Y83733D01*
X23498Y84041D01*
X23998Y83907D01*
D02*
G37*
G36*
X127591Y82979D02*
X128515Y82445D01*
X129545Y82169D01*
X130612D01*
X131642Y82445D01*
X131673Y82463D01*
X132943Y81193D01*
Y76983D01*
X132481Y76791D01*
X132409Y76864D01*
X131485Y77397D01*
X130455Y77673D01*
X129388D01*
X128358Y77397D01*
X128327Y77379D01*
X127057Y78649D01*
Y82860D01*
X127519Y83051D01*
X127591Y82979D01*
D02*
G37*
G36*
X298207Y96002D02*
X302428D01*
X303195Y95235D01*
Y75296D01*
X302695Y75089D01*
X302543Y75242D01*
X301745Y75702D01*
X300854Y75941D01*
X299933D01*
X299043Y75702D01*
X298741Y75528D01*
X298305Y75854D01*
X298380Y76231D01*
Y94242D01*
X298263Y94827D01*
X297932Y95323D01*
X297653Y95603D01*
X297899Y96063D01*
X298207Y96002D01*
D02*
G37*
G36*
X297593Y70292D02*
X298245Y69640D01*
X299043Y69179D01*
X299933Y68941D01*
X300854D01*
X301745Y69179D01*
X302543Y69640D01*
X302695Y69792D01*
X303195Y69585D01*
Y67563D01*
X301729Y66096D01*
X295685D01*
Y70912D01*
X297235D01*
X297593Y70292D01*
D02*
G37*
G36*
X309504Y56837D02*
Y45094D01*
X298774D01*
Y48864D01*
X300779D01*
X301136Y48245D01*
X301788Y47593D01*
X302586Y47132D01*
X303476Y46894D01*
X304398D01*
X305288Y47132D01*
X306086Y47593D01*
X306738Y48245D01*
X307199Y49043D01*
X307437Y49933D01*
Y50854D01*
X307199Y51745D01*
X306738Y52543D01*
X306086Y53194D01*
X305288Y53655D01*
X304398Y53894D01*
X303476D01*
X302586Y53655D01*
X301788Y53194D01*
X301136Y52543D01*
X300779Y51923D01*
X298774D01*
Y55905D01*
X298657Y56491D01*
X298563Y56632D01*
X298830Y57132D01*
X309209D01*
X309504Y56837D01*
D02*
G37*
G36*
X309477Y32007D02*
X309465Y31512D01*
X304709D01*
Y29482D01*
X304129D01*
X303544Y29366D01*
X303048Y29034D01*
X302485Y28471D01*
X302386Y28478D01*
X301985Y28635D01*
Y31512D01*
X301136D01*
Y34646D01*
X301019Y35231D01*
X300688Y35727D01*
X300081Y36333D01*
X300273Y36795D01*
X309477D01*
Y32007D01*
D02*
G37*
G36*
X311309Y26616D02*
Y18196D01*
X311177Y18065D01*
X309465D01*
Y20095D01*
X305073D01*
Y24394D01*
X309465D01*
Y26423D01*
X309842D01*
X310428Y26540D01*
X310809Y26795D01*
X311309Y26616D01*
D02*
G37*
G36*
X293604Y45178D02*
Y25517D01*
X293127Y25242D01*
X292475Y24590D01*
X292014Y23792D01*
X291786Y22941D01*
X295276D01*
Y22441D01*
X295776D01*
Y18951D01*
X296626Y19180D01*
X296797Y19278D01*
X297230Y19028D01*
Y13734D01*
X291354D01*
Y14583D01*
X290041D01*
X289850Y15045D01*
X290818Y16012D01*
X291149Y16508D01*
X291266Y17094D01*
Y44619D01*
X291149Y45204D01*
X290818Y45700D01*
X289653Y46865D01*
X289844Y47327D01*
X291455D01*
X293604Y45178D01*
D02*
G37*
G36*
X215137Y29898D02*
X214273Y29034D01*
X213941Y28538D01*
X213825Y27953D01*
Y14583D01*
X211795D01*
Y10377D01*
X211539Y10188D01*
X211039Y10440D01*
Y14779D01*
X209010D01*
Y29682D01*
X209689Y30360D01*
X214946D01*
X215137Y29898D01*
D02*
G37*
G36*
X254114Y19268D02*
X253643Y18798D01*
X253311Y18302D01*
X253195Y17717D01*
Y14779D01*
X251165D01*
Y10346D01*
X250787Y10119D01*
X250410Y10346D01*
Y14779D01*
X248380D01*
Y18658D01*
X249452Y19730D01*
X253922D01*
X254114Y19268D01*
D02*
G37*
G36*
X246633Y21237D02*
X245769Y20373D01*
X245437Y19877D01*
X245321Y19291D01*
Y14779D01*
X243291D01*
Y10290D01*
X242791Y10091D01*
X242429Y10325D01*
Y14679D01*
X240400D01*
Y20914D01*
X241185Y21699D01*
X246442D01*
X246633Y21237D01*
D02*
G37*
G36*
X238759Y23599D02*
X238047Y22887D01*
X237789Y22715D01*
X237457Y22218D01*
X237341Y21633D01*
Y14679D01*
X235311D01*
Y9994D01*
X234661D01*
Y14583D01*
X232632D01*
Y22989D01*
X233704Y24061D01*
X238568D01*
X238759Y23599D01*
D02*
G37*
G36*
X230885Y25568D02*
X230021Y24703D01*
X229689Y24207D01*
X229573Y23622D01*
Y14583D01*
X227543D01*
Y9994D01*
X226787D01*
Y14583D01*
X224758D01*
Y26030D01*
X230694D01*
X230885Y25568D01*
D02*
G37*
G36*
X222224Y27930D02*
X222147Y27853D01*
X221815Y27357D01*
X221699Y26772D01*
Y14583D01*
X219669D01*
Y9994D01*
X218913D01*
Y14583D01*
X216884D01*
Y27319D01*
X217956Y28392D01*
X222032D01*
X222224Y27930D01*
D02*
G37*
G36*
X314961Y0D02*
X308242D01*
X308176Y500D01*
X308831Y675D01*
X309629Y1136D01*
X310281Y1788D01*
X310742Y2586D01*
X310970Y3437D01*
X303991D01*
X304219Y2586D01*
X304680Y1788D01*
X305331Y1136D01*
X306129Y675D01*
X306785Y500D01*
X306719Y0D01*
X274966D01*
X274917Y500D01*
X275196Y556D01*
X275693Y887D01*
X276278Y1473D01*
X276610Y1969D01*
X276685Y2347D01*
X279421D01*
Y4725D01*
X279921D01*
Y5225D01*
X283480D01*
Y6780D01*
X283858Y7007D01*
X284236Y6780D01*
Y5225D01*
X287795D01*
X291354D01*
X291354Y7103D01*
X291842Y7132D01*
X305052D01*
X305094Y7072D01*
X305226Y6632D01*
X304680Y6086D01*
X304219Y5288D01*
X303991Y4437D01*
X310970D01*
X310742Y5288D01*
X310281Y6086D01*
X309629Y6738D01*
X308831Y7198D01*
X307941Y7437D01*
X307551D01*
X307344Y7937D01*
X308168Y8761D01*
X308500Y9257D01*
X308616Y9843D01*
Y12976D01*
X309465D01*
Y15006D01*
X311811D01*
X312396Y15123D01*
X312893Y15454D01*
X313920Y16481D01*
X314252Y16978D01*
X314368Y17563D01*
Y58421D01*
X314252Y59007D01*
X313920Y59503D01*
X311711Y61711D01*
X311215Y62043D01*
X310630Y62159D01*
X295685D01*
Y63038D01*
X302362D01*
X302947Y63154D01*
X303444Y63485D01*
X305806Y65848D01*
X306137Y66344D01*
X306254Y66929D01*
Y95869D01*
X306137Y96454D01*
X305806Y96950D01*
X305399Y97357D01*
X305590Y97819D01*
X310764D01*
Y106118D01*
X298982D01*
Y130702D01*
X298866Y131287D01*
X298534Y131783D01*
X297948Y132369D01*
X297452Y132700D01*
X296867Y132817D01*
X109971Y132817D01*
X109971Y132817D01*
X109386Y132700D01*
X108889Y132369D01*
X104037Y127516D01*
X103705Y127020D01*
X103589Y126435D01*
Y107480D01*
Y99647D01*
X103089Y99440D01*
X102566Y99962D01*
X101642Y100496D01*
X100612Y100772D01*
X99545D01*
X98515Y100496D01*
X97591Y99962D01*
X96837Y99208D01*
X96304Y98284D01*
X96028Y97254D01*
Y96187D01*
X96304Y95157D01*
X96837Y94233D01*
X97591Y93479D01*
X97965Y93263D01*
X98007Y92748D01*
X94446Y89187D01*
X94115Y88691D01*
X94062Y88424D01*
X93534Y88337D01*
X93321Y88708D01*
X92566Y89462D01*
X91642Y89996D01*
X90612Y90272D01*
X90510D01*
X90318Y90734D01*
X90673Y91088D01*
X91004Y91584D01*
X91121Y92169D01*
Y92806D01*
X91642Y92945D01*
X92566Y93479D01*
X93321Y94233D01*
X93854Y95157D01*
X94130Y96187D01*
Y97254D01*
X93854Y98284D01*
X93321Y99208D01*
X92566Y99962D01*
X91642Y100496D01*
X90612Y100772D01*
X89545D01*
X88515Y100496D01*
X87591Y99962D01*
X86837Y99208D01*
X86304Y98284D01*
X86028Y97254D01*
Y96187D01*
X86304Y95157D01*
X86837Y94233D01*
X87591Y93479D01*
X87965Y93263D01*
X88007Y92748D01*
X84446Y89187D01*
X84115Y88691D01*
X84062Y88424D01*
X83534Y88337D01*
X83320Y88708D01*
X82566Y89462D01*
X81642Y89996D01*
X80612Y90272D01*
X80510D01*
X80318Y90734D01*
X80673Y91088D01*
X81004Y91584D01*
X81121Y92169D01*
Y92806D01*
X81642Y92945D01*
X82566Y93479D01*
X83320Y94233D01*
X83854Y95157D01*
X84130Y96187D01*
Y97254D01*
X83854Y98284D01*
X83320Y99208D01*
X82566Y99962D01*
X81642Y100496D01*
X80612Y100772D01*
X79545D01*
X78515Y100496D01*
X77591Y99962D01*
X76837Y99208D01*
X76304Y98284D01*
X76028Y97254D01*
Y96187D01*
X76304Y95157D01*
X76837Y94233D01*
X77591Y93479D01*
X77965Y93263D01*
X78007Y92748D01*
X74446Y89187D01*
X74115Y88691D01*
X74062Y88424D01*
X73535Y88337D01*
X73321Y88708D01*
X72566Y89462D01*
X71642Y89996D01*
X70612Y90272D01*
X69545D01*
X68515Y89996D01*
X67591Y89462D01*
X67519Y89390D01*
X67057Y89581D01*
Y91536D01*
X68484Y92963D01*
X68515Y92945D01*
X69545Y92669D01*
X70612D01*
X71642Y92945D01*
X72566Y93479D01*
X73321Y94233D01*
X73854Y95157D01*
X74130Y96187D01*
Y97254D01*
X73854Y98284D01*
X73321Y99208D01*
X72566Y99962D01*
X71642Y100496D01*
X70612Y100772D01*
X69545D01*
X68515Y100496D01*
X67591Y99962D01*
X66837Y99208D01*
X66304Y98284D01*
X66028Y97254D01*
Y96187D01*
X66304Y95157D01*
X66321Y95126D01*
X64446Y93251D01*
X64115Y92755D01*
X63998Y92169D01*
Y88534D01*
X63498Y88400D01*
X63320Y88708D01*
X62566Y89462D01*
X61642Y89996D01*
X60612Y90272D01*
X60510D01*
X60318Y90734D01*
X60673Y91088D01*
X61004Y91584D01*
X61121Y92169D01*
Y92806D01*
X61642Y92945D01*
X62566Y93479D01*
X63320Y94233D01*
X63854Y95157D01*
X64130Y96187D01*
Y97254D01*
X63854Y98284D01*
X63320Y99208D01*
X62566Y99962D01*
X61642Y100496D01*
X60612Y100772D01*
X59545D01*
X58515Y100496D01*
X57591Y99962D01*
X56837Y99208D01*
X56304Y98284D01*
X56028Y97254D01*
Y96187D01*
X56304Y95157D01*
X56837Y94233D01*
X57591Y93479D01*
X57965Y93263D01*
X58007Y92748D01*
X54446Y89187D01*
X54115Y88691D01*
X54062Y88424D01*
X53535Y88337D01*
X53320Y88708D01*
X52566Y89462D01*
X51642Y89996D01*
X50612Y90272D01*
X50510D01*
X50318Y90734D01*
X50673Y91088D01*
X51004Y91584D01*
X51121Y92169D01*
Y92806D01*
X51642Y92945D01*
X52566Y93479D01*
X53320Y94233D01*
X53854Y95157D01*
X54130Y96187D01*
Y97254D01*
X53854Y98284D01*
X53320Y99208D01*
X52566Y99962D01*
X51642Y100496D01*
X50612Y100772D01*
X49545D01*
X48515Y100496D01*
X47591Y99962D01*
X46837Y99208D01*
X46304Y98284D01*
X46028Y97254D01*
Y96187D01*
X46304Y95157D01*
X46837Y94233D01*
X47591Y93479D01*
X47965Y93263D01*
X48007Y92748D01*
X44446Y89187D01*
X44115Y88691D01*
X44062Y88424D01*
X43534Y88337D01*
X43321Y88708D01*
X42566Y89462D01*
X41642Y89996D01*
X40612Y90272D01*
X40510D01*
X40318Y90734D01*
X40673Y91088D01*
X41004Y91584D01*
X41121Y92169D01*
Y92806D01*
X41642Y92945D01*
X42566Y93479D01*
X43321Y94233D01*
X43854Y95157D01*
X44130Y96187D01*
Y97254D01*
X43854Y98284D01*
X43321Y99208D01*
X42566Y99962D01*
X41642Y100496D01*
X40612Y100772D01*
X39545D01*
X38515Y100496D01*
X37591Y99962D01*
X36837Y99208D01*
X36304Y98284D01*
X36028Y97254D01*
Y96187D01*
X36304Y95157D01*
X36837Y94233D01*
X37591Y93479D01*
X37965Y93263D01*
X38007Y92748D01*
X34446Y89187D01*
X34115Y88691D01*
X34062Y88424D01*
X33535Y88337D01*
X33321Y88708D01*
X32566Y89462D01*
X31642Y89996D01*
X30612Y90272D01*
X30510D01*
X30318Y90734D01*
X30673Y91088D01*
X31004Y91584D01*
X31121Y92169D01*
Y92806D01*
X31642Y92945D01*
X32566Y93479D01*
X33321Y94233D01*
X33854Y95157D01*
X34130Y96187D01*
Y97254D01*
X33854Y98284D01*
X33321Y99208D01*
X32566Y99962D01*
X31642Y100496D01*
X30612Y100772D01*
X29545D01*
X28515Y100496D01*
X27591Y99962D01*
X26837Y99208D01*
X26304Y98284D01*
X26028Y97254D01*
Y96187D01*
X26304Y95157D01*
X26837Y94233D01*
X27591Y93479D01*
X27965Y93263D01*
X28007Y92748D01*
X24446Y89187D01*
X24115Y88691D01*
X24062Y88424D01*
X23535Y88337D01*
X23321Y88708D01*
X22566Y89462D01*
X21642Y89996D01*
X20612Y90272D01*
X19545D01*
X18515Y89996D01*
X17591Y89462D01*
X16837Y88708D01*
X16304Y87784D01*
X16028Y86754D01*
Y85687D01*
X16304Y84657D01*
X16321Y84626D01*
X14289Y82593D01*
X13957Y82097D01*
X13841Y81512D01*
Y75936D01*
X13341Y75802D01*
X13163Y76109D01*
X12409Y76864D01*
X11485Y77397D01*
X10455Y77673D01*
X9388D01*
X8358Y77397D01*
X8327Y77379D01*
X7057Y78649D01*
Y82860D01*
X7519Y83051D01*
X7591Y82979D01*
X8515Y82445D01*
X9545Y82169D01*
X9579D01*
Y86221D01*
Y90272D01*
X9545D01*
X8515Y89996D01*
X7591Y89462D01*
X7519Y89390D01*
X7057Y89581D01*
Y91536D01*
X8484Y92963D01*
X8515Y92945D01*
X9545Y92669D01*
X10612D01*
X11642Y92945D01*
X12566Y93479D01*
X13320Y94233D01*
X13854Y95157D01*
X14130Y96187D01*
Y97254D01*
X13854Y98284D01*
X13320Y99208D01*
X12566Y99962D01*
X11642Y100496D01*
X10612Y100772D01*
X9545D01*
X8515Y100496D01*
X7591Y99962D01*
X6837Y99208D01*
X6304Y98284D01*
X6028Y97254D01*
Y96187D01*
X6304Y95157D01*
X6321Y95126D01*
X4446Y93251D01*
X4115Y92755D01*
X3998Y92169D01*
Y78016D01*
X4115Y77430D01*
X4446Y76934D01*
X6164Y75217D01*
X6146Y75186D01*
X5870Y74155D01*
Y73089D01*
X6146Y72058D01*
X6679Y71135D01*
X7434Y70380D01*
X8358Y69847D01*
X9388Y69571D01*
X10455D01*
X11485Y69847D01*
X12409Y70380D01*
X13163Y71135D01*
X13341Y71442D01*
X13841Y71308D01*
Y18173D01*
X13957Y17588D01*
X14289Y17092D01*
X16164Y15216D01*
X16146Y15186D01*
X15870Y14155D01*
Y13089D01*
X16146Y12058D01*
X16680Y11135D01*
X17434Y10380D01*
X18156Y9963D01*
Y5512D01*
X18272Y4927D01*
X18604Y4430D01*
X21359Y1675D01*
X21855Y1344D01*
X22440Y1227D01*
X146441D01*
Y500D01*
X146441Y379D01*
X146148Y0D01*
X0D01*
Y133858D01*
X314961D01*
Y0D01*
D02*
G37*
G36*
X268994Y15475D02*
X269047Y15293D01*
X268943Y14769D01*
Y14582D01*
X266913D01*
Y9826D01*
X273668D01*
Y7102D01*
X270972D01*
Y4724D01*
X270472D01*
Y4224D01*
X266913D01*
Y3498D01*
X266158D01*
Y4224D01*
X262598D01*
Y5224D01*
X266158D01*
Y7102D01*
X262335D01*
X262127Y7602D01*
X263680Y9155D01*
X264011Y9651D01*
X264046Y9826D01*
X266158D01*
Y14582D01*
X264128D01*
Y15793D01*
X268825D01*
X268994Y15475D01*
D02*
G37*
%LPC*%
G36*
X256209Y109753D02*
X253937D01*
Y108072D01*
X256209D01*
Y109753D01*
D02*
G37*
G36*
X238492D02*
X236221D01*
Y108072D01*
X238492D01*
Y109753D01*
D02*
G37*
G36*
X252937D02*
X250665D01*
Y108072D01*
X252937D01*
Y109753D01*
D02*
G37*
G36*
X235221D02*
X232949D01*
Y108072D01*
X235221D01*
Y109753D01*
D02*
G37*
G36*
X247941Y108382D02*
X244882D01*
Y106504D01*
X247941D01*
Y108382D01*
D02*
G37*
G36*
X243882D02*
X240823D01*
Y106504D01*
X243882D01*
Y108382D01*
D02*
G37*
G36*
X256209Y107072D02*
X253937D01*
Y105391D01*
X256209D01*
Y107072D01*
D02*
G37*
G36*
X252937D02*
X250665D01*
Y105391D01*
X252937D01*
Y107072D01*
D02*
G37*
G36*
X238492D02*
X236221D01*
Y105391D01*
X238492D01*
Y107072D01*
D02*
G37*
G36*
X235221D02*
X232949D01*
Y105391D01*
X235221D01*
Y107072D01*
D02*
G37*
G36*
X269398Y108214D02*
Y105224D01*
X272387D01*
X272159Y106075D01*
X271698Y106874D01*
X271047Y107525D01*
X270249Y107986D01*
X269398Y108214D01*
D02*
G37*
G36*
X247941Y105504D02*
X244882D01*
Y103626D01*
X247941D01*
Y105504D01*
D02*
G37*
G36*
X243882D02*
X240823D01*
Y103626D01*
X243882D01*
Y105504D01*
D02*
G37*
G36*
X261992Y104634D02*
X258343D01*
Y102362D01*
X261992D01*
Y104634D01*
D02*
G37*
G36*
X272387Y104224D02*
X269398D01*
Y101235D01*
X270249Y101463D01*
X271047Y101924D01*
X271698Y102575D01*
X272159Y103374D01*
X272387Y104224D01*
D02*
G37*
G36*
X268398Y108214D02*
X267547Y107986D01*
X266749Y107525D01*
X266097Y106874D01*
X265636Y106075D01*
X265398Y105185D01*
Y104634D01*
X262992D01*
Y101862D01*
Y99090D01*
X266642D01*
Y101408D01*
X267142Y101697D01*
X267547Y101463D01*
X268398Y101235D01*
Y104724D01*
Y108214D01*
D02*
G37*
G36*
X181866Y102575D02*
X180185D01*
Y99319D01*
X181866D01*
Y102575D01*
D02*
G37*
G36*
X179185D02*
X177504D01*
Y99319D01*
X179185D01*
Y102575D01*
D02*
G37*
G36*
X176866D02*
X175185D01*
Y99319D01*
X176866D01*
Y102575D01*
D02*
G37*
G36*
X174185D02*
X172504D01*
Y99319D01*
X174185D01*
Y102575D01*
D02*
G37*
G36*
X261992Y101362D02*
X258343D01*
Y99090D01*
X261992D01*
Y101362D01*
D02*
G37*
G36*
X220094Y110252D02*
X215339D01*
Y103134D01*
X220094D01*
Y105164D01*
X221020D01*
X222093Y104091D01*
Y101709D01*
X221244D01*
Y95772D01*
X226000D01*
Y101709D01*
X225151D01*
Y104724D01*
X225035Y105310D01*
X224704Y105806D01*
X222735Y107774D01*
X222239Y108106D01*
X221654Y108222D01*
X220094D01*
Y110252D01*
D02*
G37*
G36*
X186866Y102575D02*
X182504D01*
Y95063D01*
X186866D01*
Y102575D01*
D02*
G37*
G36*
X181866Y98319D02*
X180185D01*
Y95063D01*
X181866D01*
Y98319D01*
D02*
G37*
G36*
X179185D02*
X177504D01*
Y95063D01*
X179185D01*
Y98319D01*
D02*
G37*
G36*
X176866D02*
X175185D01*
Y95063D01*
X176866D01*
Y98319D01*
D02*
G37*
G36*
X174185D02*
X172504D01*
Y95063D01*
X174185D01*
Y98319D01*
D02*
G37*
G36*
X246669Y87024D02*
X244988D01*
Y84752D01*
X246669D01*
Y87024D01*
D02*
G37*
G36*
X243988D02*
X242307D01*
Y84752D01*
X243988D01*
Y87024D01*
D02*
G37*
G36*
X181866Y81709D02*
X180185D01*
Y78453D01*
X181866D01*
Y81709D01*
D02*
G37*
G36*
X179185D02*
X177504D01*
Y78453D01*
X179185D01*
Y81709D01*
D02*
G37*
G36*
X176866D02*
X175185D01*
Y78453D01*
X176866D01*
Y81709D01*
D02*
G37*
G36*
X174185D02*
X172504D01*
Y78453D01*
X174185D01*
Y81709D01*
D02*
G37*
G36*
X156439Y80272D02*
X156405D01*
Y76720D01*
X159957D01*
Y76754D01*
X159681Y77784D01*
X159147Y78708D01*
X158393Y79462D01*
X157469Y79996D01*
X156439Y80272D01*
D02*
G37*
G36*
X155405D02*
X155372D01*
X154342Y79996D01*
X153418Y79462D01*
X152664Y78708D01*
X152130Y77784D01*
X151854Y76754D01*
Y76720D01*
X155405D01*
Y80272D01*
D02*
G37*
G36*
X211728Y93047D02*
X197721D01*
Y85929D01*
X211728D01*
Y87998D01*
X213764D01*
Y85614D01*
X214612D01*
Y81748D01*
X211555D01*
Y74945D01*
X217137D01*
Y78975D01*
X217223Y79061D01*
X217555Y79557D01*
X217671Y80142D01*
Y85614D01*
X218520D01*
Y85618D01*
X219382D01*
Y88587D01*
Y91555D01*
X217504D01*
Y91551D01*
X213764D01*
Y91057D01*
X211728D01*
Y93047D01*
D02*
G37*
G36*
X186866Y81709D02*
X182504D01*
Y74197D01*
X186866D01*
Y81709D01*
D02*
G37*
G36*
X181866Y77453D02*
X180185D01*
Y74197D01*
X181866D01*
Y77453D01*
D02*
G37*
G36*
X179185D02*
X177504D01*
Y74197D01*
X179185D01*
Y77453D01*
D02*
G37*
G36*
X176866D02*
X175185D01*
Y74197D01*
X176866D01*
Y77453D01*
D02*
G37*
G36*
X174185D02*
X172504D01*
Y74197D01*
X174185D01*
Y77453D01*
D02*
G37*
G36*
X159957Y75721D02*
X156405D01*
Y72169D01*
X156439D01*
X157469Y72445D01*
X158393Y72979D01*
X159147Y73733D01*
X159681Y74657D01*
X159957Y75687D01*
Y75721D01*
D02*
G37*
G36*
X155405D02*
X151854D01*
Y75687D01*
X152130Y74657D01*
X152664Y73733D01*
X153418Y72979D01*
X154342Y72445D01*
X155372Y72169D01*
X155405D01*
Y75721D01*
D02*
G37*
G36*
X221466Y74032D02*
X219785D01*
Y71760D01*
X221466D01*
Y74032D01*
D02*
G37*
G36*
X218785D02*
X217104D01*
Y71760D01*
X218785D01*
Y74032D01*
D02*
G37*
G36*
X254612Y73244D02*
X252931D01*
Y70972D01*
X254612D01*
Y73244D01*
D02*
G37*
G36*
X246675Y77059D02*
X244494D01*
X242313D01*
X242313Y74787D01*
X241882Y74622D01*
X241717D01*
Y70972D01*
X244489D01*
X247261D01*
Y74622D01*
X247107D01*
X246675Y74787D01*
X246675Y75122D01*
Y77059D01*
D02*
G37*
G36*
X221466Y70760D02*
X219785D01*
Y68488D01*
X221466D01*
Y70760D01*
D02*
G37*
G36*
X218785D02*
X217104D01*
Y68488D01*
X218785D01*
Y70760D01*
D02*
G37*
G36*
X254612Y69972D02*
X252931D01*
Y67701D01*
X254612D01*
Y69972D01*
D02*
G37*
G36*
X247261D02*
X244989D01*
Y66323D01*
X247261D01*
Y69972D01*
D02*
G37*
G36*
X243989D02*
X241717D01*
Y66323D01*
X243989D01*
Y69972D01*
D02*
G37*
G36*
X262705Y66945D02*
Y63886D01*
X264583D01*
Y66945D01*
X262705D01*
D02*
G37*
G36*
X264583Y62886D02*
X262705D01*
Y59827D01*
X264583D01*
Y62886D01*
D02*
G37*
G36*
X246169Y54671D02*
Y51681D01*
X249159D01*
X248931Y52532D01*
X248470Y53330D01*
X247818Y53982D01*
X247020Y54443D01*
X246169Y54671D01*
D02*
G37*
G36*
X245169D02*
X244318Y54443D01*
X243520Y53982D01*
X242869Y53330D01*
X242408Y52532D01*
X242180Y51681D01*
X245169D01*
Y54671D01*
D02*
G37*
G36*
X249159Y50681D02*
X246169D01*
Y47692D01*
X247020Y47920D01*
X247818Y48380D01*
X248470Y49032D01*
X248931Y49830D01*
X249159Y50681D01*
D02*
G37*
G36*
X245169D02*
X242180D01*
X242408Y49830D01*
X242869Y49032D01*
X243520Y48380D01*
X244318Y47920D01*
X245169Y47692D01*
Y50681D01*
D02*
G37*
G36*
X156439Y50272D02*
X155372D01*
X154342Y49996D01*
X153418Y49462D01*
X152664Y48708D01*
X152130Y47784D01*
X151854Y46754D01*
Y45687D01*
X152130Y44657D01*
X152664Y43733D01*
X153418Y42979D01*
X154342Y42445D01*
X155372Y42169D01*
X156439D01*
X157469Y42445D01*
X158393Y42979D01*
X159147Y43733D01*
X159681Y44657D01*
X159957Y45687D01*
Y46754D01*
X159681Y47784D01*
X159147Y48708D01*
X158393Y49462D01*
X157469Y49996D01*
X156439Y50272D01*
D02*
G37*
G36*
X155799Y36728D02*
X155766D01*
X154736Y36452D01*
X153812Y35919D01*
X153058Y35165D01*
X152524Y34241D01*
X152248Y33211D01*
Y33177D01*
X155799D01*
Y36728D01*
D02*
G37*
G36*
Y32177D02*
X152248D01*
Y32144D01*
X152524Y31113D01*
X153058Y30190D01*
X153812Y29435D01*
X154736Y28902D01*
X155766Y28626D01*
X155799D01*
Y32177D01*
D02*
G37*
G36*
X146563Y114907D02*
Y111917D01*
X149553D01*
X149325Y112768D01*
X148864Y113566D01*
X148212Y114218D01*
X147414Y114679D01*
X146563Y114907D01*
D02*
G37*
G36*
X145563D02*
X144712Y114679D01*
X143914Y114218D01*
X143262Y113566D01*
X142801Y112768D01*
X142573Y111917D01*
X145563D01*
Y114907D01*
D02*
G37*
G36*
X139982Y113673D02*
X138301D01*
Y111402D01*
X139982D01*
Y113673D01*
D02*
G37*
G36*
X20455Y77673D02*
X20421D01*
Y74122D01*
X23972D01*
Y74155D01*
X23696Y75186D01*
X23163Y76109D01*
X22409Y76864D01*
X21485Y77397D01*
X20455Y77673D01*
D02*
G37*
G36*
X23972Y73122D02*
X20421D01*
Y69571D01*
X20455D01*
X21485Y69847D01*
X22409Y70380D01*
X23163Y71135D01*
X23696Y72058D01*
X23972Y73089D01*
Y73122D01*
D02*
G37*
G36*
X294776Y21941D02*
X291786D01*
X292014Y21090D01*
X292475Y20292D01*
X293127Y19640D01*
X293925Y19180D01*
X294776Y18951D01*
Y21941D01*
D02*
G37*
G36*
X309949Y131049D02*
Y128059D01*
X312938D01*
X312710Y128910D01*
X312249Y129708D01*
X311598Y130360D01*
X310800Y130821D01*
X309949Y131049D01*
D02*
G37*
G36*
X308949D02*
X308098Y130821D01*
X307300Y130360D01*
X306648Y129708D01*
X306187Y128910D01*
X305959Y128059D01*
X308949D01*
Y131049D01*
D02*
G37*
G36*
X312938Y127059D02*
X309949D01*
Y124070D01*
X310800Y124298D01*
X311598Y124758D01*
X312249Y125410D01*
X312710Y126208D01*
X312938Y127059D01*
D02*
G37*
G36*
X308949D02*
X305959D01*
X306187Y126208D01*
X306648Y125410D01*
X307300Y124758D01*
X308098Y124298D01*
X308949Y124070D01*
Y127059D01*
D02*
G37*
G36*
X11130Y126718D02*
Y123728D01*
X14119D01*
X13891Y124579D01*
X13431Y125377D01*
X12779Y126029D01*
X11981Y126490D01*
X11130Y126718D01*
D02*
G37*
G36*
X10130D02*
X9279Y126490D01*
X8481Y126029D01*
X7829Y125377D01*
X7368Y124579D01*
X7140Y123728D01*
X10130D01*
Y126718D01*
D02*
G37*
G36*
X14119Y122728D02*
X11130D01*
Y119739D01*
X11981Y119967D01*
X12779Y120428D01*
X13431Y121079D01*
X13891Y121877D01*
X14119Y122728D01*
D02*
G37*
G36*
X10130D02*
X7140D01*
X7368Y121877D01*
X7829Y121079D01*
X8481Y120428D01*
X9279Y119967D01*
X10130Y119739D01*
Y122728D01*
D02*
G37*
G36*
X20612Y100772D02*
X20579D01*
Y97220D01*
X24130D01*
Y97254D01*
X23854Y98284D01*
X23321Y99208D01*
X22566Y99962D01*
X21642Y100496D01*
X20612Y100772D01*
D02*
G37*
G36*
X19579D02*
X19545D01*
X18515Y100496D01*
X17591Y99962D01*
X16837Y99208D01*
X16304Y98284D01*
X16028Y97254D01*
Y97220D01*
X19579D01*
Y100772D01*
D02*
G37*
G36*
X24130Y96220D02*
X20579D01*
Y92669D01*
X20612D01*
X21642Y92945D01*
X22566Y93479D01*
X23321Y94233D01*
X23854Y95157D01*
X24130Y96187D01*
Y96220D01*
D02*
G37*
G36*
X19579D02*
X16028D01*
Y96187D01*
X16304Y95157D01*
X16837Y94233D01*
X17591Y93479D01*
X18515Y92945D01*
X19545Y92669D01*
X19579D01*
Y96220D01*
D02*
G37*
G36*
X10612Y90272D02*
X10579D01*
Y86721D01*
X14130D01*
Y86754D01*
X13854Y87784D01*
X13320Y88708D01*
X12566Y89462D01*
X11642Y89996D01*
X10612Y90272D01*
D02*
G37*
G36*
X14130Y85720D02*
X10579D01*
Y82169D01*
X10612D01*
X11642Y82445D01*
X12566Y82979D01*
X13320Y83733D01*
X13854Y84657D01*
X14130Y85687D01*
Y85720D01*
D02*
G37*
G36*
X10455Y17673D02*
X10421D01*
Y14122D01*
X13972D01*
Y14155D01*
X13696Y15186D01*
X13163Y16109D01*
X12409Y16864D01*
X11485Y17397D01*
X10455Y17673D01*
D02*
G37*
G36*
X9421D02*
X9388D01*
X8358Y17397D01*
X7434Y16864D01*
X6679Y16109D01*
X6146Y15186D01*
X5870Y14155D01*
Y14122D01*
X9421D01*
Y17673D01*
D02*
G37*
G36*
X13972Y13122D02*
X10421D01*
Y9571D01*
X10455D01*
X11485Y9847D01*
X12409Y10380D01*
X13163Y11135D01*
X13696Y12058D01*
X13972Y13089D01*
Y13122D01*
D02*
G37*
G36*
X9421D02*
X5870D01*
Y13089D01*
X6146Y12058D01*
X6679Y11135D01*
X7434Y10380D01*
X8358Y9847D01*
X9388Y9571D01*
X9421D01*
Y13122D01*
D02*
G37*
G36*
X291354Y4225D02*
X288295D01*
Y2347D01*
X291354D01*
Y4225D01*
D02*
G37*
G36*
X287295D02*
X284236D01*
Y2347D01*
X287295D01*
Y4225D01*
D02*
G37*
G36*
X283480Y4225D02*
X280421D01*
Y2347D01*
X283480D01*
Y4225D01*
D02*
G37*
G36*
X269972Y7102D02*
X266913D01*
Y5224D01*
X269972D01*
Y7102D01*
D02*
G37*
%LPD*%
D10*
X151383Y120079D02*
X151969Y119493D01*
X137801Y120079D02*
X151383D01*
X151969Y106136D02*
X161417D01*
X141924D02*
X151969D01*
Y119493D01*
X140580Y107480D02*
X141924Y106136D01*
X161417D02*
Y121260D01*
X137795Y107480D02*
X140580D01*
X161417Y106136D02*
X204724D01*
X131890Y107480D02*
Y114173D01*
X105118Y107480D02*
X131890D01*
X105118D02*
Y126435D01*
Y95323D02*
Y107480D01*
X131890Y114173D02*
Y120079D01*
X216142Y80142D02*
Y88583D01*
X214346Y78347D02*
X216142Y80142D01*
Y88583D02*
Y88650D01*
X164769Y5512D02*
X165354Y6098D01*
X31295Y5512D02*
X164769D01*
X165354Y6098D02*
Y56772D01*
X155905Y66220D02*
X165354Y56772D01*
X162125Y10822D02*
Y50001D01*
X150000Y10236D02*
X161539D01*
X162125Y10822D01*
X155905Y56221D02*
X162125Y50001D01*
X172835Y17323D02*
X188189Y1969D01*
X196457Y25197D02*
X200787D01*
X191441Y30213D02*
X196457Y25197D01*
X250091Y81193D02*
X261024Y92126D01*
X239461Y81193D02*
X250091D01*
X278740Y24410D02*
X280118D01*
X277953Y66929D02*
X283465Y72441D01*
X276165Y67669D02*
X282905Y74409D01*
X283906Y66584D02*
X285827Y68504D01*
X272591Y69150D02*
X283755Y80315D01*
X280315Y65748D02*
X285039Y70472D01*
X274378Y68410D02*
X284315Y78347D01*
X262598Y12204D02*
Y16535D01*
X263386Y17323D02*
X286210D01*
X270472Y14769D02*
X271058Y15354D01*
X270472Y12204D02*
Y14769D01*
Y12204D02*
X274409D01*
X271058Y15354D02*
X287997D01*
X262598Y16535D02*
X263386Y17323D01*
X262598Y10236D02*
Y12204D01*
X262598Y12204D01*
X274409D02*
X275197Y11416D01*
X277953Y46291D02*
X282587Y41657D01*
Y26879D02*
Y41657D01*
X280118Y24410D02*
X282587Y26879D01*
X280315Y46457D02*
X284374Y42398D01*
X278740Y31693D02*
Y42976D01*
X280315Y46457D02*
Y65748D01*
X282635Y21260D02*
X284374Y22999D01*
X267110Y33827D02*
Y71253D01*
X268898Y27559D02*
X270803Y29465D01*
X266929Y29921D02*
X268898Y31890D01*
Y70513D01*
X265173Y31890D02*
X267110Y33827D01*
X270803Y29465D02*
Y69891D01*
X284374Y22999D02*
Y42398D01*
X285694Y46133D02*
X287949Y43878D01*
X289736Y17094D02*
Y44619D01*
X284422Y19291D02*
X286161Y21031D01*
Y43138D01*
X287481Y46874D02*
X289736Y44619D01*
X287949Y19062D02*
Y43878D01*
X286210Y17323D02*
X287949Y19062D01*
X287997Y15354D02*
X289736Y17094D01*
X272591Y26326D02*
Y69150D01*
X271855Y25591D02*
X272591Y26326D01*
X285694Y46133D02*
Y64848D01*
X287481Y62013D02*
X288067Y62598D01*
X287481Y46874D02*
Y62013D01*
X274378Y24964D02*
Y68410D01*
X283906Y45393D02*
X286161Y43138D01*
X272643Y23228D02*
X274378Y24964D01*
X276165Y45551D02*
Y67669D01*
X277953Y46291D02*
Y66929D01*
X276165Y45551D02*
X278740Y42976D01*
X285694Y64848D02*
X287381Y66535D01*
X283906Y45393D02*
Y66584D01*
X257480Y63386D02*
X258268Y64173D01*
X261024Y70472D02*
Y85433D01*
X254725Y63386D02*
X257480D01*
X262500Y4823D02*
X262598Y4724D01*
X254823Y4823D02*
X262500D01*
X254724Y4921D02*
X254823Y4823D01*
X260827Y8465D02*
X262598Y10236D01*
X254724Y12204D02*
Y17717D01*
X256299Y19291D01*
X246850Y19291D02*
X248819Y21260D01*
X246850Y12204D02*
Y19291D01*
X204134Y8465D02*
X260827D01*
X238920Y4871D02*
X246800D01*
X246850Y4921D02*
X254724D01*
X246800Y4871D02*
X246850Y4921D01*
X283465Y72441D02*
X292126D01*
X282078Y86221D02*
X292126D01*
X283755Y80315D02*
X292126D01*
X284315Y78347D02*
X292126D01*
X282905Y74409D02*
X292126D01*
X270803Y69891D02*
X283196Y82284D01*
X292126D01*
X285039Y70472D02*
X292126D01*
X282637Y84252D02*
X292126D01*
X267110Y71253D02*
X282078Y86221D01*
X268898Y70513D02*
X282637Y84252D01*
X285827Y68504D02*
X292126D01*
X295457Y95636D02*
X296850Y94242D01*
X303062Y97531D02*
X304724Y95869D01*
Y66929D02*
Y95869D01*
X296850Y76231D02*
Y94242D01*
X297453Y98286D02*
X298207Y97531D01*
X303062D01*
X294871Y127847D02*
X295457Y127261D01*
X140022Y127847D02*
X294871Y127847D01*
X295457Y95636D02*
Y127261D01*
X292126Y72441D02*
X300394D01*
X292126Y74409D02*
X292134Y74417D01*
X295037D02*
X296850Y76231D01*
X292134Y74417D02*
X295037D01*
X261024Y92126D02*
X292126D01*
X263779Y88189D02*
X292126D01*
X262205Y90158D02*
X292126D01*
X258268Y86221D02*
X262205Y90158D01*
X261024Y85433D02*
X263779Y88189D01*
X292126Y62598D02*
X292126Y62598D01*
Y60630D02*
X292126Y60630D01*
X292126Y58661D02*
X292126Y58661D01*
X292126Y50787D02*
Y52756D01*
X302362Y64567D02*
X304724Y66929D01*
X292126Y48819D02*
X295133Y45812D01*
X292126Y48819D02*
Y50787D01*
Y56693D02*
X296457D01*
X258268Y64173D02*
Y86221D01*
X288067Y62598D02*
X292126D01*
X287381Y66535D02*
X292126D01*
X248819Y21260D02*
X282635D01*
X256299Y19291D02*
X284422D01*
X279921Y9449D02*
X280709Y8661D01*
X279921Y9449D02*
Y12205D01*
X302756D02*
X303543Y12992D01*
X307087Y16535D02*
X311811D01*
X299607Y16536D02*
X299608Y16535D01*
X307087D02*
X307087Y16535D01*
X307087Y9843D02*
Y16535D01*
X307087Y16535D01*
X295133Y22583D02*
X295276Y22441D01*
X305906Y8661D02*
X307087Y9843D01*
X188189Y1969D02*
X274611D01*
X275197Y2554D01*
X312839Y17563D02*
Y58421D01*
X292126Y60630D02*
X310630D01*
X296867Y131287D02*
X297453Y130702D01*
X310630Y60630D02*
X312839Y58421D01*
X311811Y16535D02*
X312839Y17563D01*
X297244Y50394D02*
X303937D01*
X311034Y44645D02*
Y57470D01*
X296457Y56693D02*
X297244Y55905D01*
Y37008D02*
Y50394D01*
Y55905D01*
Y37008D02*
X299606Y34646D01*
X311034Y44645D02*
X311051Y44628D01*
Y36895D02*
Y44628D01*
X311006Y36849D02*
X311051Y36895D01*
X311006Y29116D02*
Y36849D01*
X299606Y27953D02*
Y34646D01*
X309842Y27953D02*
X311006Y29116D01*
X303543Y27367D02*
X304129Y27953D01*
X307087D02*
X309842D01*
X299606Y27953D02*
X299607Y27953D01*
X299607Y16536D02*
Y27952D01*
X299607Y27953D02*
X299607Y27952D01*
X304129Y27953D02*
X307087D01*
X280709Y8661D02*
X305906D01*
X287795Y12205D02*
X302756D01*
X240551Y23228D02*
X272643D01*
X233071Y25591D02*
X271855D01*
X292126Y58661D02*
X309842D01*
X297453Y98286D02*
Y130702D01*
X292126Y64567D02*
X302362D01*
X224016Y27559D02*
X268898D01*
X217323Y29921D02*
X266929D01*
X209055Y31890D02*
X265173D01*
X275197Y2554D02*
Y11416D01*
X303543Y12992D02*
Y27367D01*
X295133Y22583D02*
Y45812D01*
X109971Y131287D02*
X296867Y131287D01*
X309842Y58661D02*
X311034Y57470D01*
X215354Y4725D02*
X223228D01*
X207480Y12401D02*
Y30315D01*
X215354Y27953D02*
X217323Y29921D01*
X207480Y30315D02*
X209055Y31890D01*
X215256Y4823D02*
X215354Y4725D01*
X223228Y12205D02*
Y26772D01*
X224016Y27559D01*
X215354Y12205D02*
Y27953D01*
X238913Y21590D02*
X240551Y23228D01*
X231102Y12205D02*
Y23622D01*
X233071Y25591D01*
X223228Y4725D02*
X231102D01*
X231151Y4773D01*
X238870Y12301D02*
Y21633D01*
X207480Y4921D02*
X207578Y4823D01*
X231151Y4773D02*
X238822D01*
X238870Y4821D01*
X207578Y4823D02*
X215256D01*
X238870Y4821D02*
X238920Y4871D01*
X200787Y11811D02*
Y17717D01*
Y11811D02*
X204134Y8465D01*
X187009Y17717D02*
X200787D01*
X233071Y70472D02*
Y78347D01*
X225827Y78740D02*
X232677D01*
X228156Y88583D02*
X232087Y84652D01*
X232677D01*
X238177D01*
X232677Y78740D02*
X235433D01*
X236614Y77559D02*
X238583D01*
X238177Y84652D02*
X238577Y84252D01*
X223622Y98032D02*
Y104724D01*
X191732Y29921D02*
Y94095D01*
X204724Y89528D02*
X215264D01*
X204724Y98032D02*
X216142D01*
X191732Y94095D02*
X195669Y98032D01*
X204724D01*
X187008Y17717D02*
X187009Y17717D01*
X225197Y71260D02*
Y78110D01*
X215264Y89528D02*
X216142Y88650D01*
X225197Y78110D02*
X225433Y78347D01*
X225827Y78740D01*
X223622Y88583D02*
X228156D01*
X235433Y78740D02*
X236614Y77559D01*
X238583D02*
Y80315D01*
X239461Y81193D01*
X211121Y113484D02*
X235720D01*
X253437D02*
X262289D01*
X244382D02*
X253437D01*
X262289D02*
X262492Y113280D01*
X204724Y106136D02*
X205281Y106693D01*
X221654D02*
X223622Y104724D01*
X217717Y106693D02*
X221654D01*
X210237Y112599D02*
X211121Y113484D01*
X205281Y106693D02*
X210237D01*
X204724Y98032D02*
Y106136D01*
X210237Y106693D02*
Y112599D01*
X235720Y113484D02*
X244382D01*
X134933Y91075D02*
Y122758D01*
X140022Y127847D01*
X105118Y126435D02*
X109971Y131287D01*
X155905Y86457D02*
X167480D01*
X148425Y26772D02*
X156299Y18898D01*
X148425Y26772D02*
Y90753D01*
X148718Y91046D01*
X149011Y91339D02*
X166142D01*
X148718Y91046D02*
X149011Y91339D01*
X166142D02*
X169685Y94882D01*
Y98819D01*
X169567Y77953D02*
Y84370D01*
X167480Y86457D02*
X169567Y84370D01*
X130079Y86221D02*
X134933Y91075D01*
X115528Y88106D02*
X119591Y92169D01*
Y96233D02*
X120079Y96720D01*
X119591Y92169D02*
Y96233D01*
X120079Y80485D02*
Y86221D01*
Y80485D02*
X124472Y76091D01*
Y18173D02*
Y76091D01*
X119921Y13622D02*
X124472Y18173D01*
X15370Y81512D02*
X20079Y86221D01*
X110079Y80485D02*
Y86221D01*
X105528Y92169D02*
X110079Y96720D01*
X105528Y78016D02*
Y92169D01*
Y78016D02*
X109921Y73622D01*
X110079Y80485D02*
X114472Y76091D01*
X39591Y96233D02*
X40079Y96720D01*
X49591Y96233D02*
X50079Y96720D01*
X59591Y96233D02*
X60079Y96720D01*
X79591Y96233D02*
X80079Y96720D01*
X89591Y96233D02*
X90079Y96720D01*
X99591Y96233D02*
X100079Y96720D01*
X40079Y80485D02*
X44472Y76091D01*
X60079Y80485D02*
X64472Y76091D01*
X45528Y78016D02*
X49921Y73622D01*
X50079Y80485D02*
X54472Y76091D01*
X55528Y78016D02*
X59921Y73622D01*
X65528Y78016D02*
X69921Y73622D01*
X70079Y80485D02*
X74472Y76091D01*
X75528Y78016D02*
X79921Y73622D01*
X80079Y80485D02*
X84472Y76091D01*
X85528Y78016D02*
X89921Y73622D01*
X90079Y80485D02*
X94472Y76091D01*
X95528Y78016D02*
X99921Y73622D01*
X25528Y78016D02*
Y88106D01*
Y78016D02*
X29921Y73622D01*
X25528Y88106D02*
X29591Y92169D01*
Y96233D02*
X30079Y96720D01*
X29591Y92169D02*
Y96233D01*
X30079Y80485D02*
Y86221D01*
X35528Y78016D02*
Y88106D01*
X39591Y92169D01*
Y96233D01*
X35528Y78016D02*
X39921Y73622D01*
X40079Y80485D02*
Y86221D01*
X30079Y80485D02*
X34472Y76091D01*
X30079Y96720D02*
X30315Y96957D01*
X45528Y78016D02*
Y88106D01*
X49591Y92169D02*
Y96233D01*
X45528Y88106D02*
X49591Y92169D01*
X50079Y80485D02*
Y86221D01*
X59591Y92169D02*
Y96233D01*
X55528Y88106D02*
X59591Y92169D01*
X55528Y78016D02*
Y88106D01*
X60079Y80485D02*
Y86221D01*
X65528Y78016D02*
Y92169D01*
X70079Y80485D02*
Y86221D01*
X65528Y92169D02*
X70079Y96720D01*
X75528Y88106D02*
X79591Y92169D01*
Y96233D01*
X80079Y80485D02*
Y86221D01*
X75528Y78016D02*
Y88106D01*
X85528Y78016D02*
Y88106D01*
X89591Y92169D01*
Y96233D01*
X90079Y80485D02*
Y86221D01*
X115528Y78016D02*
Y88106D01*
Y78016D02*
X119921Y73622D01*
X125528Y78016D02*
X129921Y73622D01*
X125528Y78016D02*
Y88106D01*
X129591Y92169D01*
X139921Y73622D02*
Y79357D01*
X135528Y83751D02*
X139921Y79357D01*
X135528Y88106D02*
X139591Y92169D01*
Y96233D01*
X140079Y96720D01*
X130079Y86221D02*
X134472Y81827D01*
X135528Y83751D02*
Y88106D01*
X140079Y86221D02*
X144472Y81827D01*
X95528Y78016D02*
Y88106D01*
X100079Y80485D02*
Y86221D01*
Y80485D02*
X104472Y76091D01*
X99591Y92169D02*
Y96233D01*
X95528Y88106D02*
X99591Y92169D01*
X100079Y86221D02*
X103740Y89882D01*
Y93946D01*
X105118Y95323D01*
X129591Y96233D02*
X130079Y96720D01*
X129591Y92169D02*
Y96233D01*
X5528Y78016D02*
Y92169D01*
X10079Y96720D01*
X5528Y78016D02*
X9921Y73622D01*
X144472Y18173D02*
Y81827D01*
X134472Y18173D02*
Y81827D01*
X29921Y6885D02*
Y13622D01*
Y6885D02*
X31295Y5512D01*
X94472Y18173D02*
Y76091D01*
X104472Y18173D02*
Y76091D01*
X114472Y18173D02*
Y76091D01*
X69921Y13622D02*
X74472Y18173D01*
X79921Y13622D02*
X84472Y18173D01*
X89921Y13622D02*
X94472Y18173D01*
X99921Y13622D02*
X104472Y18173D01*
X109921Y13622D02*
X114472Y18173D01*
X129921Y13622D02*
X134472Y18173D01*
X139921Y13622D02*
X144472Y18173D01*
X19685Y13386D02*
X19921Y13622D01*
X15370Y18173D02*
Y81512D01*
Y18173D02*
X19921Y13622D01*
X34472Y18173D02*
Y76091D01*
X44472Y18173D02*
Y76091D01*
X54472Y18173D02*
Y76091D01*
X64472Y18173D02*
Y76091D01*
X74472Y18173D02*
Y76091D01*
X84472Y18173D02*
Y76091D01*
X19685Y5512D02*
Y13386D01*
X22440Y2757D02*
X150000D01*
X19685Y5512D02*
X22440Y2757D01*
X59921Y13622D02*
X64472Y18173D01*
X29921Y13622D02*
X34472Y18173D01*
X39921Y13622D02*
X44472Y18173D01*
X49921Y13622D02*
X54472Y18173D01*
X0Y0D02*
X314961D01*
Y133858D01*
X0D02*
X314961D01*
X0Y0D02*
Y133858D01*
D12*
X219882Y88587D02*
D03*
X223622Y88583D02*
D03*
X216142D02*
D03*
Y98740D02*
D03*
X223622D02*
D03*
D13*
X204724Y89488D02*
D03*
Y98622D02*
D03*
D14*
X137795Y107480D02*
D03*
X132283D02*
D03*
D15*
X227224Y78347D02*
D03*
X214346D02*
D03*
D16*
X174685Y77953D02*
D03*
X169567D02*
D03*
X169685Y98819D02*
D03*
X179685Y77953D02*
D03*
X184685D02*
D03*
X179685Y98819D02*
D03*
X184685D02*
D03*
X174685D02*
D03*
D17*
X292126Y50787D02*
D03*
Y52756D02*
D03*
Y54724D02*
D03*
Y56693D02*
D03*
Y58661D02*
D03*
Y76378D02*
D03*
Y60630D02*
D03*
Y62598D02*
D03*
Y64567D02*
D03*
Y66535D02*
D03*
Y68504D02*
D03*
Y70472D02*
D03*
Y72441D02*
D03*
Y74409D02*
D03*
Y78347D02*
D03*
Y80315D02*
D03*
Y82284D02*
D03*
Y84252D02*
D03*
Y86221D02*
D03*
Y88189D02*
D03*
Y90158D02*
D03*
Y92126D02*
D03*
Y94095D02*
D03*
Y48819D02*
D03*
D18*
X304252Y40945D02*
D03*
X304252Y101969D02*
D03*
D19*
X278740Y31693D02*
D03*
Y24213D02*
D03*
X262598Y4724D02*
D03*
Y12204D02*
D03*
X270472Y4724D02*
D03*
Y12204D02*
D03*
X246850Y4921D02*
D03*
Y12401D02*
D03*
X287795Y4725D02*
D03*
Y12205D02*
D03*
X279921D02*
D03*
Y4725D02*
D03*
X254724Y4921D02*
D03*
Y12401D02*
D03*
X238870Y12301D02*
D03*
Y4821D02*
D03*
X231102Y12205D02*
D03*
Y4725D02*
D03*
X223228Y12205D02*
D03*
Y4725D02*
D03*
X215354Y12205D02*
D03*
Y4725D02*
D03*
X207480Y12401D02*
D03*
Y4921D02*
D03*
X200787Y17717D02*
D03*
Y25197D02*
D03*
X244382Y113484D02*
D03*
Y106004D02*
D03*
X157480Y2757D02*
D03*
Y10236D02*
D03*
X150000Y2757D02*
D03*
Y10236D02*
D03*
D20*
X307087Y27953D02*
D03*
X299607D02*
D03*
X307087Y16535D02*
D03*
X299608D02*
D03*
X254725Y63386D02*
D03*
X262205D02*
D03*
X217717Y106693D02*
D03*
X210237D02*
D03*
D21*
X261024Y70472D02*
D03*
X255112D02*
D03*
X225197Y71260D02*
D03*
X219285D02*
D03*
X244494Y77559D02*
D03*
X238583D02*
D03*
X238577Y84252D02*
D03*
X244488D02*
D03*
X137801Y114173D02*
D03*
X131890D02*
D03*
Y120079D02*
D03*
X137801D02*
D03*
D22*
X262492Y101862D02*
D03*
Y113280D02*
D03*
D23*
X235720Y113484D02*
D03*
Y107572D02*
D03*
X253437Y113484D02*
D03*
Y107572D02*
D03*
X232677Y78740D02*
D03*
Y84652D02*
D03*
D24*
X244489Y70472D02*
D03*
X233071D02*
D03*
D40*
X109921Y13622D02*
D03*
X9921D02*
D03*
X19921D02*
D03*
X29921D02*
D03*
X39921D02*
D03*
X49921D02*
D03*
X59921D02*
D03*
X69921D02*
D03*
X79921D02*
D03*
X89921D02*
D03*
X99921D02*
D03*
X119921D02*
D03*
X9921Y73622D02*
D03*
X49921D02*
D03*
X59921D02*
D03*
X69921D02*
D03*
X79921D02*
D03*
X89921D02*
D03*
X99921D02*
D03*
X109921D02*
D03*
X119921D02*
D03*
X129921D02*
D03*
X139921Y63622D02*
D03*
Y53622D02*
D03*
Y43622D02*
D03*
Y33622D02*
D03*
Y23622D02*
D03*
X129921Y13622D02*
D03*
X139921D02*
D03*
Y73622D02*
D03*
X19921D02*
D03*
X29921D02*
D03*
X39921D02*
D03*
X155905Y56221D02*
D03*
Y76221D02*
D03*
Y86221D02*
D03*
Y66220D02*
D03*
Y46220D02*
D03*
Y96220D02*
D03*
X156299Y32677D02*
D03*
Y18898D02*
D03*
X120079Y86221D02*
D03*
X40079Y96720D02*
D03*
X30079D02*
D03*
X20079D02*
D03*
X140079D02*
D03*
X130079D02*
D03*
X120079D02*
D03*
X110079D02*
D03*
X100079D02*
D03*
X90079D02*
D03*
X80079D02*
D03*
X70079D02*
D03*
X60079D02*
D03*
X50079D02*
D03*
X10079D02*
D03*
Y86221D02*
D03*
X70079D02*
D03*
X110079D02*
D03*
X60079D02*
D03*
X40079D02*
D03*
X50079D02*
D03*
X30079D02*
D03*
X20079D02*
D03*
X130079D02*
D03*
X100079D02*
D03*
X90079D02*
D03*
X80079D02*
D03*
X140079D02*
D03*
D41*
X146063Y111417D02*
D03*
X172835Y17323D02*
D03*
X295276Y22441D02*
D03*
X268898Y104724D02*
D03*
X300394Y72441D02*
D03*
X309449Y127559D02*
D03*
X307480Y3937D02*
D03*
X303937Y50394D02*
D03*
X187008Y17717D02*
D03*
X245669Y51181D02*
D03*
X161417Y121260D02*
D03*
X10630Y123228D02*
D03*
M02*
