G04*
G04 #@! TF.GenerationSoftware,Altium Limited,Altium Designer,21.7.2 (23)*
G04*
G04 Layer_Color=8421504*
%FSLAX25Y25*%
%MOIN*%
G70*
G04*
G04 #@! TF.SameCoordinates,B8BBB409-1C5D-4E28-8008-B1E3FC97E4F7*
G04*
G04*
G04 #@! TF.FilePolarity,Positive*
G04*
G01*
G75*
%ADD10C,0.01000*%
%ADD12R,0.02756X0.03937*%
%ADD13R,0.12008X0.05118*%
%ADD14R,0.02362X0.02756*%
%ADD15R,0.03583X0.04803*%
%ADD16R,0.02362X0.05512*%
%ADD17R,0.05118X0.00984*%
%ADD18R,0.11024X0.06299*%
%ADD19R,0.05118X0.02756*%
%ADD20R,0.02756X0.05118*%
%ADD21R,0.02362X0.03543*%
%ADD22R,0.06299X0.03543*%
%ADD23R,0.03543X0.02362*%
%ADD24R,0.03543X0.06299*%
D10*
X314961D01*
Y133858D01*
X0D02*
X314961D01*
X0Y0D02*
Y133858D01*
D12*
X219882Y88587D02*
D03*
X223622Y88583D02*
D03*
X216142D02*
D03*
Y98740D02*
D03*
X223622D02*
D03*
D13*
X204724Y89488D02*
D03*
Y98622D02*
D03*
D14*
X137795Y107480D02*
D03*
X132283D02*
D03*
D15*
X227224Y78347D02*
D03*
X214346D02*
D03*
D16*
X174685Y77953D02*
D03*
X169567D02*
D03*
X169685Y98819D02*
D03*
X179685Y77953D02*
D03*
X184685D02*
D03*
X179685Y98819D02*
D03*
X184685D02*
D03*
X174685D02*
D03*
D17*
X292126Y50787D02*
D03*
Y52756D02*
D03*
Y54724D02*
D03*
Y56693D02*
D03*
Y58661D02*
D03*
Y76378D02*
D03*
Y60630D02*
D03*
Y62598D02*
D03*
Y64567D02*
D03*
Y66535D02*
D03*
Y68504D02*
D03*
Y70472D02*
D03*
Y72441D02*
D03*
Y74409D02*
D03*
Y78347D02*
D03*
Y80315D02*
D03*
Y82284D02*
D03*
Y84252D02*
D03*
Y86221D02*
D03*
Y88189D02*
D03*
Y90158D02*
D03*
Y92126D02*
D03*
Y94095D02*
D03*
Y48819D02*
D03*
D18*
X304252Y40945D02*
D03*
X304252Y101969D02*
D03*
D19*
X278740Y31693D02*
D03*
Y24213D02*
D03*
X262598Y4724D02*
D03*
Y12204D02*
D03*
X270472Y4724D02*
D03*
Y12204D02*
D03*
X246850Y4921D02*
D03*
Y12401D02*
D03*
X287795Y4725D02*
D03*
Y12205D02*
D03*
X279921D02*
D03*
Y4725D02*
D03*
X254724Y4921D02*
D03*
Y12401D02*
D03*
X238870Y12301D02*
D03*
Y4821D02*
D03*
X231102Y12205D02*
D03*
Y4725D02*
D03*
X223228Y12205D02*
D03*
Y4725D02*
D03*
X215354Y12205D02*
D03*
Y4725D02*
D03*
X207480Y12401D02*
D03*
Y4921D02*
D03*
X200787Y17717D02*
D03*
Y25197D02*
D03*
X244382Y113484D02*
D03*
Y106004D02*
D03*
X157480Y2757D02*
D03*
Y10236D02*
D03*
X150000Y2757D02*
D03*
Y10236D02*
D03*
D20*
X307087Y27953D02*
D03*
X299607D02*
D03*
X307087Y16535D02*
D03*
X299608D02*
D03*
X254725Y63386D02*
D03*
X262205D02*
D03*
X217717Y106693D02*
D03*
X210237D02*
D03*
D21*
X261024Y70472D02*
D03*
X255112D02*
D03*
X225197Y71260D02*
D03*
X219285D02*
D03*
X244494Y77559D02*
D03*
X238583D02*
D03*
X238577Y84252D02*
D03*
X244488D02*
D03*
X137801Y114173D02*
D03*
X131890D02*
D03*
Y120079D02*
D03*
X137801D02*
D03*
D22*
X262492Y101862D02*
D03*
Y113280D02*
D03*
D23*
X235720Y113484D02*
D03*
Y107572D02*
D03*
X253437Y113484D02*
D03*
Y107572D02*
D03*
X232677Y78740D02*
D03*
Y84652D02*
D03*
D24*
X244489Y70472D02*
D03*
X233071D02*
D03*
M02*
