M48
;Layer_Color=9474304
;FILE_FORMAT=2:5
INCH,LZ
;TYPE=PLATED
T1F00S00C0.02800
T2F00S00C0.05039
%
T01
X001063Y0123228
X0146063Y0111417
X0161417Y012126
X0172835Y0017323
X0187008Y0017717
X0245669Y0051181
X0303937Y0050394
X0300394Y0072441
X0295276Y0022441
X030748Y0003937
X0309449Y0127559
X0268898Y0104724
T02
X0009921Y0013622
X0019921
X0029921
X0039921
X0049921
X0059921
X0069921
X0079921
X0089921
X0099921
X0109921
X0119921
X0129921
X0139921
Y0023622
Y0033622
Y0043622
Y0053622
Y0063622
Y0073622
X0129921
X0119921
X0109921
X0099921
X0089921
X0079921
X0069921
X0059921
X0049921
X0039921
X0029921
X0019921
X0009921
X0010079Y0086221
X0020079
X0030079
X0040079
X0050079
X0060079
X0070079
X0080079
X0090079
X0100079
X0110079
X0120079
X0130079
X0140079
Y009672
X0130079
X0120079
X0110079
X0100079
X0090079
X0080079
X0070079
X0060079
X0050079
X0040079
X0030079
X0020079
X0010079
X0155905Y009622
Y0086221
Y0076221
Y006622
Y0056221
Y004622
X0156299Y0032677
Y0018898
M30
